<?xml version="1.0" encoding="UTF-8" standalone="no"?>
<!-- Created with Inkscape (http://www.inkscape.org/) -->

<svg
   width="186.74934mm"
   height="187.76268mm"
   viewBox="0 0 186.74934 187.76268"
   version="1.1"
   id="svg5"
   inkscape:version="1.2.1 (9c6d41e410, 2022-07-14)"
   sodipodi:docname="Examples.svg"
   inkscape:export-filename="..\..\Repos\GenshinFonts\readme_assets\Examples.svg"
   inkscape:export-xdpi="96"
   inkscape:export-ydpi="96"
   xmlns:inkscape="http://www.inkscape.org/namespaces/inkscape"
   xmlns:sodipodi="http://sodipodi.sourceforge.net/DTD/sodipodi-0.dtd"
   xmlns="http://www.w3.org/2000/svg"
   xmlns:svg="http://www.w3.org/2000/svg">
  <sodipodi:namedview
     id="namedview7"
     pagecolor="#505050"
     bordercolor="#eeeeee"
     borderopacity="1"
     inkscape:showpageshadow="0"
     inkscape:pageopacity="0"
     inkscape:pagecheckerboard="0"
     inkscape:deskcolor="#505050"
     inkscape:document-units="mm"
     showgrid="false"
     inkscape:zoom="1.0444209"
     inkscape:cx="291.54913"
     inkscape:cy="438.52052"
     inkscape:window-width="1920"
     inkscape:window-height="1009"
     inkscape:window-x="-8"
     inkscape:window-y="-8"
     inkscape:window-maximized="1"
     inkscape:current-layer="layer1" />
  <defs
     id="defs2">
    <rect
       x="633.84406"
       y="337.02887"
       width="25.851646"
       height="362.88052"
       id="rect582" />
    <rect
       x="261.38885"
       y="85.214684"
       width="292.02786"
       height="94.789368"
       id="rect573" />
    <rect
       x="598.41772"
       y="325.53925"
       width="137.87544"
       height="386.81723"
       id="rect1233" />
    <rect
       x="56.193687"
       y="310.75787"
       width="597.14258"
       height="690.57306"
       id="rect970" />
    <rect
       x="157.0715"
       y="194.30829"
       width="503.7121"
       height="95.461563"
       id="rect964" />
  </defs>
  <g
     inkscape:groupmode="layer"
     id="layer2"
     inkscape:label="图层 2"
     style="display:inline"
     sodipodi:insensitive="true"
     transform="translate(-10.870687,-16.443952)">
    <rect
       style="fill:#b9e1ff;fill-opacity:0.695793;stroke:#0054a1;stroke-width:1.565;stroke-linecap:round;stroke-linejoin:round;stroke-dasharray:none;stroke-opacity:1"
       id="rect1537"
       width="185.18436"
       height="186.19768"
       x="11.653188"
       y="17.226452" />
    <path
       style="fill:#b9e1ff;fill-opacity:0.695793;stroke:#000000;stroke-width:0.565;stroke-linecap:round;stroke-linejoin:round;stroke-dasharray:none;stroke-opacity:1"
       d="M 20.03559,79.88903 H 189.00682"
       id="path5961" />
  </g>
  <g
     inkscape:label="图层 1"
     inkscape:groupmode="layer"
     id="layer1"
     transform="translate(-10.870687,-16.443952)">
    <text
       xml:space="preserve"
       transform="matrix(0.26458333,0,0,0.26458333,-2.2799716,0)"
       id="text962"
       style="font-style:normal;font-variant:normal;font-weight:bold;font-stretch:normal;font-size:24px;font-family:'Source Han Serif SC';-inkscape-font-specification:'Source Han Serif SC, Bold';font-variant-ligatures:normal;font-variant-caps:normal;font-variant-numeric:normal;font-variant-east-asian:normal;text-align:center;white-space:pre;shape-inside:url(#rect964);display:inline;fill:#000000;stroke-width:2.51339;stroke-linecap:round;stroke-linejoin:round"><tspan
         x="300.92773"
         y="218.42859"
         id="tspan1390"><tspan
           style="font-weight:500;-inkscape-font-specification:'Source Han Serif SC, Medium'"
           id="tspan1388">「向着星辰与深渊」
</tspan></tspan><tspan
         x="265.83967"
         y="248.42859"
         id="tspan1398"><tspan
           style="font-weight:500;-inkscape-font-specification:'Source Han Serif SC, Medium'"
           id="tspan1392">“</tspan><tspan
           style="font-weight:500;-inkscape-font-specification:'Source Han Serif SC, Medium'"
           id="tspan1394">Ad astra abyssosque</tspan><tspan
           style="font-weight:500;-inkscape-font-specification:'Source Han Serif SC, Medium'"
           id="tspan1396">”
</tspan></tspan><tspan
         x="261.59469"
         y="278.42859"
         id="tspan1402"><tspan
           style="font-size:17.3333px"
           id="tspan1400">（这句话用作测试文本再合适不过了）</tspan></tspan></text>
    <text
       xml:space="preserve"
       transform="matrix(0.26458333,0,0,0.26458333,4.6656464,2.9635792)"
       id="text968"
       style="font-style:normal;font-variant:normal;font-weight:500;font-stretch:normal;font-size:21.3333px;font-family:'Source Han Serif SC';-inkscape-font-specification:'Source Han Serif SC, Medium';font-variant-ligatures:normal;font-variant-caps:normal;font-variant-numeric:normal;font-variant-east-asian:normal;text-align:start;white-space:pre;shape-inside:url(#rect970);display:inline;fill:#000000;stroke-width:2.51339;stroke-linecap:round;stroke-linejoin:round"
       x="-63.509232"
       y="0"><tspan
         x="56.193359"
         y="332.19778"
         id="tspan1404">提瓦特通用语 / Teyvat Common Language (TCL)
</tspan><tspan
         x="56.193359"
         y="358.8644"
         id="tspan1406">   v1.002
</tspan><tspan
         x="56.193359"
         y="385.53103"
         id="tspan1410">   <tspan
   style="font-weight:normal;font-family:'Teyvat Common Language';-inkscape-font-specification:'Teyvat Common Language, Normal'"
   id="tspan1408">Ad astra abyssosque</tspan>
</tspan><tspan
         x="56.193359"
         y="414.01098"
         id="tspan1412">
</tspan><tspan
         x="56.193359"
         y="440.67761"
         id="tspan1414">稻妻文 / Inazuma Language (and No Vert) (IL &amp; ILNV)
</tspan><tspan
         x="56.193359"
         y="467.34423"
         id="tspan1416">   v1.001
</tspan><tspan
         x="56.193359"
         y="494.01086"
         id="tspan1420">   <tspan
   style="font-weight:normal;font-family:'Inazuma Language';-inkscape-font-specification:'Inazuma Language, Normal'"
   id="tspan1418">Ad astra abyssosque</tspan>
</tspan><tspan
         x="56.193359"
         y="525.1788"
         id="tspan1422">
</tspan><tspan
         x="56.193359"
         y="551.84542"
         id="tspan1424">赤沙文 / Deshret Languange (DL)
</tspan><tspan
         x="56.193359"
         y="578.51205"
         id="tspan1432">   v0.001<tspan
   style="fill:#ba2b00"
   id="tspan1426">（</tspan><tspan
   style="fill:#ba2b00"
   id="tspan1428">制作中 / </tspan><tspan
   style="fill:#ba2b00"
   id="tspan1430">WIP）</tspan>
</tspan><tspan
         x="56.193359"
         y="605.17867"
         id="tspan1436">   <tspan
   style="font-weight:normal;font-family:'Deshret Language';-inkscape-font-specification:'Deshret Language, Normal'"
   id="tspan1434">AD ASTRA AB  SSOS    E</tspan>
</tspan><tspan
         x="56.193359"
         y="634.36465"
         id="tspan1438">
</tspan><tspan
         x="56.193359"
         y="661.03127"
         id="tspan1440">坎瑞亚文 / Kanri'ah Languange (KL)
</tspan><tspan
         x="56.193359"
         y="687.6979"
         id="tspan1442">   v1.001
</tspan><tspan
         x="56.193359"
         y="714.39119"
         id="tspan1446">   <tspan
   style="font-weight:normal;font-family:'Khaenri\'ah Language';-inkscape-font-specification:'Khaenri\'ah Language, Normal'"
   id="tspan1444">Ad astra abyssosque</tspan>
</tspan></text>
    <text
       xml:space="preserve"
       transform="matrix(0.26458333,0,0,0.26458333,-4.7427997,0.28406429)"
       id="text1231"
       style="font-style:normal;font-variant:normal;font-weight:500;font-stretch:normal;font-size:21.3333px;font-family:'Source Han Serif SC';-inkscape-font-specification:'Source Han Serif SC, Medium';font-variant-ligatures:normal;font-variant-caps:normal;font-variant-numeric:normal;font-variant-east-asian:normal;text-align:start;writing-mode:tb-rl;direction:ltr;white-space:pre;shape-inside:url(#rect1233);display:inline;fill:#000000;stroke-width:2.51339;stroke-linecap:round;stroke-linejoin:round"><tspan
         x="722.95966"
         y="325.53906"
         id="tspan1448">稻妻文（纵书）/ IL (Vertical Writting)
</tspan><tspan
         x="696.29303"
         y="325.53906"
         id="tspan1450">   v1.001
</tspan></text>
    <text
       xml:space="preserve"
       transform="matrix(0.26458333,0,0,0.26458333,-1.7733113,2.786632)"
       id="text571"
       style="font-weight:bold;font-size:29.3333px;line-height:1;font-family:'Source Han Serif SC';-inkscape-font-specification:'Source Han Serif SC, Bold';text-align:center;white-space:pre;shape-inside:url(#rect573);display:inline;fill:#000000;stroke-width:2.13543;stroke-linecap:round;stroke-linejoin:round"><tspan
         x="271.86376"
         y="118.06815"
         id="tspan1454"><tspan
   style="font-size:37.3333px"
   id="tspan1452">Genshin Fonts</tspan>
</tspan><tspan
         x="317.24646"
         y="148.36145"
         id="tspan1456">提瓦特的ABC</tspan></text>
    <g
       aria-label="   Ad astra abyssosque"
       transform="matrix(0.26458333,0,0,0.26458333,-3.0174558,-9.3732167)"
       id="text580"
       style="font-size:21.3333px;line-height:0;font-family:'Inazuma Language';-inkscape-font-specification:'Inazuma Language, Normal';font-feature-settings:vert;text-align:center;text-anchor:middle;white-space:pre;shape-inside:url(#rect582);stroke-width:2.13543;stroke-linecap:round;stroke-linejoin:round">
      <path
         d="m 663.62064,380.99795 q 0.55467,0.0427 0.704,-0.27733 0.14933,-0.29867 0.0427,-0.78933 -0.32,-1.408 -1.64267,-1.96267 -0.21333,-0.0853 -0.49066,-0.0853 -0.27734,0 -0.49067,0.10667 -0.49067,0.256 -0.61867,0.76799 -0.128,0.53334 0.21334,1.00267 0.384,0.55467 0.91733,0.896 0.55466,0.34133 1.36533,0.34133 z m -1.088,10.02665 q 1.152,0 2.176,-0.34133 1.04533,-0.34133 1.81333,-1.00267 0.74666,-0.61866 1.25866,-1.40799 0.512,-0.78934 0.832,-1.70667 0.14933,-0.42666 0.27733,-0.896 0.128,-0.448 0.14934,-0.91733 0.064,-0.78933 0.064,-1.6 0,-0.81066 0,-1.62133 0,-0.49066 0.384,-0.61866 0.36266,-0.128 0.42666,-0.384 0.0853,-0.256 0.064,-0.576 -0.0213,-0.512 -0.42666,-0.896 -0.40534,-0.384 -0.91733,-0.40533 -0.42667,-0.0427 -0.85334,0 -0.42666,0.0213 -0.68266,0.27733 -0.256,0.256 -0.32,0.59733 -0.0427,0.36267 0.128,0.61867 0.23466,0.384 0.29866,0.78933 0.0853,0.40533 0.064,0.85333 -0.0427,0.91734 -0.192,1.81333 -0.128,0.896 -0.59733,1.74933 -0.512,0.93867 -1.216,1.64267 -0.68266,0.72533 -1.70666,1.10933 -0.64,0.256 -1.28,0.29867 -0.64,0.064 -1.30133,-0.128 -0.98133,-0.27734 -1.38666,-0.832 -0.40534,-0.55467 -0.512,-1.36533 -0.0853,-0.96 0,-1.92 0.0853,-0.93867 0.768,-1.74933 0.0427,-0.0853 0.0853,-0.192 0.064,-0.10667 0.0213,-0.192 -0.128,-0.46933 -0.384,-0.91733 -0.14933,-0.27733 -0.49066,-0.27733 -0.29867,-0.0213 -0.59734,0 -0.29866,0.0427 -0.59733,0.12799 -0.704,0.21334 -1.36533,0.576 -0.29867,0.17067 -0.576,0.36267 -0.29866,0.21333 -0.59733,0.42667 -0.21333,0.14933 -0.21333,0.34133 0,0.192 0.0853,0.40533 0.14933,0.34133 0.42667,0.46933 0.27733,0.128 0.61866,0.17067 0.49067,0.0427 0.55467,0.128 0.0853,0.10667 0.064,0.576 v 0.064 q 0,0.704 0.0213,1.408 0.0213,0.704 0.064,1.40799 0.0213,0.256 0.0853,0.512 0.064,0.27734 0.192,0.46934 0.36267,0.55466 0.81067,1.02399 0.46933,0.46934 1.04533,0.81067 0.768,0.46933 1.62133,0.68267 0.87467,0.23466 1.81333,0.23466 z m -0.34133,-9.21598 q -0.256,-0.0213 -0.46933,0 -0.46934,0.0427 -0.64,0.40533 -0.17067,0.384 0.0853,0.768 1.04533,1.472 2.79466,1.6 0.59733,0.064 0.59733,-0.53334 0,-0.59733 -0.34133,-1.10933 -0.32,-0.512 -0.85333,-0.832 -0.53333,-0.29866 -1.17333,-0.29866 z"
         style="writing-mode:tb-rl"
         id="path586" />
      <path
         d="m 669.0393,398.51261 -1.55733,-1.344 q -0.78934,-0.68266 -1.70667,-0.98133 -0.896,-0.29867 -1.96266,-0.14933 -0.064,0.0213 -0.17067,0.064 -0.0853,0.0427 -0.0853,0.0853 -0.0427,0.14933 0.14933,0.29867 0.29867,0.21333 0.576,0.40533 0.29867,0.21333 0.61867,0.384 0.81066,0.49066 1.36533,1.19466 0.55466,0.72534 0.768,1.64267 0.21333,0.85333 0.256,1.66399 0.0427,0.832 -0.512,1.664 -0.78933,1.17333 -1.96267,1.62133 -1.15199,0.46934 -2.47466,0.064 -0.53333,-0.14933 -1.024,-0.40533 -0.49066,-0.256 -0.896,-0.66133 -0.49066,-0.512 -0.27733,-1.19467 0.10667,-0.34133 0.36267,-0.46933 0.256,-0.128 0.53333,-0.14933 0.42667,-0.0213 0.85333,0.0213 0.448,0.0427 0.87467,0.064 0.192,0.0213 0.384,0.0427 0.192,0.0427 0.384,0.0427 0.256,-0.0213 0.46933,-0.128 0.21333,-0.10666 0.32,-0.36266 0.192,-0.49067 -0.256,-0.896 -0.40533,-0.34133 -0.832,-0.61867 -0.42667,-0.27733 -0.93866,-0.448 -0.32,-0.0853 -0.46934,-0.53333 -0.14933,-0.42666 0,-0.72533 0.46934,-0.896 0.93867,-1.74933 0.448,-0.832 -0.10667,-1.45067 -0.36266,-0.40533 -0.81066,-0.76799 -0.42667,-0.34134 -1.04534,-0.42667 -0.40533,-0.064 -0.81066,-0.0427 -0.384,0.0427 -0.74667,0.23467 -0.59733,0.29867 -1.06666,0.74666 -0.46933,0.448 -0.896,0.93867 -0.34133,0.384 -0.17067,0.832 0.10667,0.23467 0.128,0.46933 0.064,0.29867 -0.0213,0.576 -0.192,0.64 -0.448,1.17333 -0.256,0.55467 -0.34133,1.04533 -0.0853,0.576 -0.10667,0.87467 0,0.32 0.0213,0.78933 0.0213,0.49067 0.14934,1.024 0.128,0.55467 0.36266,1.088 0.46934,1.13066 1.23734,1.94133 0.78933,0.81066 1.83466,1.38666 1.19466,0.64 2.45333,0.66133 1.25866,0.0213 2.53866,-0.21333 1.152,-0.23466 2.112,-0.87466 0.40533,-0.27734 0.78933,-0.55467 0.40533,-0.256 0.68267,-0.66133 0.40533,-0.55467 0.61866,-1.19467 0.23467,-0.64 0.384,-1.30133 0.17067,-0.72533 0.14933,-1.472 0,-0.72533 -0.29866,-1.42933 -0.064,-0.14933 -0.128,-0.29866 -0.0427,-0.128 -0.0853,-0.27734 -0.128,-0.42666 0.36267,-0.40533 0.14933,0.0213 0.192,0.0213 0.064,0 0.21333,0.0213 -0.0427,-0.10667 -0.17066,-0.23467 -0.10667,-0.128 -0.704,-0.66133 z"
         style="writing-mode:tb-rl"
         id="path588" />
      <path
         d="m 663.62064,419.48325 q 0.55467,0.0427 0.704,-0.27734 0.14933,-0.29866 0.0427,-0.78933 -0.32,-1.408 -1.64267,-1.96266 -0.21333,-0.0853 -0.49066,-0.0853 -0.27734,0 -0.49067,0.10667 -0.49067,0.256 -0.61867,0.768 -0.128,0.53333 0.21334,1.00266 0.384,0.55467 0.91733,0.896 0.55466,0.34134 1.36533,0.34134 z m -1.088,10.02665 q 1.152,0 2.176,-0.34134 1.04533,-0.34133 1.81333,-1.00266 0.74666,-0.61867 1.25866,-1.408 0.512,-0.78933 0.832,-1.70666 0.14933,-0.42667 0.27733,-0.896 0.128,-0.448 0.14934,-0.91733 0.064,-0.78934 0.064,-1.6 0,-0.81067 0,-1.62133 0,-0.49067 0.384,-0.61867 0.36266,-0.128 0.42666,-0.384 0.0853,-0.256 0.064,-0.576 -0.0213,-0.512 -0.42666,-0.89599 -0.40534,-0.384 -0.91733,-0.40534 -0.42667,-0.0427 -0.85334,0 -0.42666,0.0213 -0.68266,0.27734 -0.256,0.256 -0.32,0.59733 -0.0427,0.36266 0.128,0.61866 0.23466,0.384 0.29866,0.78934 0.0853,0.40533 0.064,0.85333 -0.0427,0.91733 -0.192,1.81333 -0.128,0.896 -0.59733,1.74933 -0.512,0.93866 -1.216,1.64266 -0.68266,0.72534 -1.70666,1.10933 -0.64,0.256 -1.28,0.29867 -0.64,0.064 -1.30133,-0.128 -0.98133,-0.27733 -1.38666,-0.832 -0.40534,-0.55466 -0.512,-1.36533 -0.0853,-0.96 0,-1.92 0.0853,-0.93866 0.768,-1.74933 0.0427,-0.0853 0.0853,-0.192 0.064,-0.10666 0.0213,-0.192 -0.128,-0.46933 -0.384,-0.91733 -0.14933,-0.27733 -0.49066,-0.27733 -0.29867,-0.0213 -0.59734,0 -0.29866,0.0427 -0.59733,0.128 -0.704,0.21333 -1.36533,0.576 -0.29867,0.17066 -0.576,0.36266 -0.29866,0.21334 -0.59733,0.42667 -0.21333,0.14933 -0.21333,0.34133 0,0.192 0.0853,0.40534 0.14933,0.34133 0.42667,0.46933 0.27733,0.128 0.61866,0.17066 0.49067,0.0427 0.55467,0.128 0.0853,0.10667 0.064,0.576 v 0.064 q 0,0.704 0.0213,1.408 0.0213,0.704 0.064,1.408 0.0213,0.256 0.0853,0.512 0.064,0.27733 0.192,0.46933 0.36267,0.55467 0.81067,1.024 0.46933,0.46933 1.04533,0.81066 0.768,0.46934 1.62133,0.68267 0.87467,0.23467 1.81333,0.23467 z m -0.34133,-9.21599 q -0.256,-0.0213 -0.46933,0 -0.46934,0.0427 -0.64,0.40533 -0.17067,0.384 0.0853,0.768 1.04533,1.472 2.79466,1.6 0.59733,0.064 0.59733,-0.53333 0,-0.59733 -0.34133,-1.10933 -0.32,-0.512 -0.85333,-0.832 -0.53333,-0.29867 -1.17333,-0.29867 z"
         style="writing-mode:tb-rl"
         id="path590" />
      <path
         d="m 663.15131,444.61389 v 0 q -0.27734,0 -0.68267,-0.0427 -0.40533,-0.0213 -0.832,-0.128 -0.59733,-0.128 -0.98133,-0.66134 -0.384,-0.512 -0.42666,-1.15199 -0.0427,-0.61867 0.36266,-1.10934 0.61867,-0.72533 1.344,-1.30133 0.74666,-0.576 1.728,-0.832 0.95999,-0.256 1.87733,-0.61866 0.93866,-0.34133 1.89866,-0.66133 0.40533,-0.14934 0.256,-0.49067 -0.128,-0.34133 -0.29867,-0.66133 -0.14933,-0.32 -0.49066,-0.53334 -0.896,-0.61866 -1.89867,-0.95999 -1.00266,-0.34134 -2.04799,-0.59734 -0.93867,-0.21333 -1.83467,-0.57599 -0.87466,-0.34134 -1.68533,-0.85334 -0.32,-0.192 -0.64,-0.34133 -0.32,-0.128 -0.70399,-0.0853 -0.42667,0.0213 -0.704,0.29866 -0.27734,0.27734 -0.23467,0.55467 0.0427,0.29867 0.0427,0.512 0,0.23466 0.0213,0.42666 0,0.17067 -0.0213,0.32 0,0.17067 0.064,0.34134 0.46933,1.64266 2.06933,2.09066 0.32,0.0853 0.64,0.17067 0.34133,0.0853 0.66133,0.192 0.36266,0.128 0.384,0.256 0.0427,0.128 -0.23467,0.40533 -0.36267,0.36266 -0.74666,0.704 -0.384,0.36266 -0.72534,0.74666 -0.53333,0.61867 -0.91733,1.32267 -0.36266,0.704 -0.34133,1.62133 0.064,1.17333 0.832,2.00533 0.53333,0.576 1.17333,0.91733 0.64,0.36267 1.408,0.448 1.04533,0.128 2.09066,0.064 1.06666,-0.0427 2.112,-0.29867 0.832,-0.21333 1.62133,-0.49066 0.81066,-0.256 1.53599,-0.704 0.42667,-0.23467 0.36267,-0.68267 -0.0427,-0.23466 -0.128,-0.384 -0.064,-0.14933 -0.32,-0.23466 -0.14933,-0.0427 -0.256,-0.0853 -0.10666,-0.0213 -0.40533,-0.0853 -0.448,-0.10667 -0.91733,-0.0213 -0.46934,0.0853 -0.93867,0.53333 -0.27733,0.23467 -0.53333,0.36267 -0.23467,0.14933 -0.78933,0.192 -0.53333,0.064 -0.87467,0.0853 -0.34133,0.0213 -0.87466,0.0213 z m 5.07732,-6.67732 v 0 q 0,0.0427 0.10667,0.14933 0.128,0.10667 0.21333,0.21334 0.128,0.192 0.34133,0.192 0.23467,0.0213 0.448,-0.064 0.23467,-0.0853 0.256,-0.256 0.0427,-0.14934 -0.14933,-0.32 -0.256,-0.21334 -0.40533,-0.27734 -0.14934,-0.0427 -0.36267,0.10667 -0.10666,0.0853 -0.27733,0.128 -0.17067,0.064 -0.17067,0.128 z"
         style="writing-mode:tb-rl"
         id="path592" />
      <path
         d="m 659.46065,457.20052 v 0 q 0.0213,0.32 0.064,0.61866 0.0427,0.32 0.0427,0.64 0,0.576 -0.0427,1.152 -0.0213,0.59733 0.0427,1.152 0.064,0.768 0.29867,1.45066 0.23467,0.704 0.85333,1.216 0.576,0.49067 0.98133,0.576 0.40534,0.0853 1.04533,-0.384 0.55467,-0.40533 1.04534,-0.896 0.512,-0.49066 1.02399,-0.95999 0.23467,-0.23467 0.32,-0.42667 0.0853,-0.17067 0.0853,-0.53333 0,-0.384 -0.0213,-0.53334 -0.0213,-0.128 -0.10666,-0.34133 -0.14934,-0.40533 -0.512,-0.66133 -0.36267,-0.23467 -0.93867,-0.17067 -0.23466,0.0213 -0.49066,0.29867 -0.23467,0.27733 -0.192,0.66133 0,0.21333 -0.192,0.384 -0.192,0.192 -0.448,0.36267 -0.0853,0.064 -0.192,0.10666 -0.10667,0.0427 -0.14933,0.0213 -0.21334,-0.128 -0.21334,-0.40534 0.0213,-0.68266 0.0213,-1.36533 0.0213,-0.68266 0.064,-1.36533 0.0427,-0.448 0.32,-0.72533 0.128,-0.10667 0.31999,-0.14933 0.21334,-0.0427 0.40534,-0.0427 1.74933,-0.0853 3.47733,-0.17067 1.74933,-0.064 3.49866,-0.17066 0.21333,0 0.448,-0.10667 0.23466,-0.10667 0.40533,-0.256 0.10666,-0.0853 0.17066,-0.29867 0.0853,-0.21333 0.0213,-0.34133 -0.128,-0.32 -0.36267,-0.576 -0.23466,-0.23466 -0.61866,-0.256 -0.576,-0.0213 -1.152,-0.0427 -0.576,0 -1.13067,-0.0213 -1.024,-0.0213 -2.04799,-0.0427 -1.024,-0.0213 -2.02667,-0.064 -0.17066,0 -0.34133,-0.0427 -0.14933,-0.0427 -0.32,-0.10667 -0.49067,-0.192 -0.21333,-0.61866 0.23466,-0.36267 0.46933,-0.74667 0.256,-0.36266 0.53333,-0.704 0.23467,-0.32 0.29867,-0.64 0.064,-0.29866 -0.14933,-0.68266 -0.32,-0.55467 -0.896,-0.68267 -0.576,-0.10666 -1.04533,0.32 -0.27734,0.256 -0.46934,0.61867 -0.192,0.36266 -0.32,0.704 -0.192,0.448 -0.384,0.896 -0.192,0.448 -0.34133,0.89599 -0.17066,0.53334 -0.34133,0.68267 -0.17067,0.17067 -0.72533,0.21333 -0.68267,0.0427 -1.36533,0.064 -0.68267,0.0213 -1.36534,0.064 -0.256,0.0213 -0.46933,0.10667 -0.42666,0.23467 -0.55466,0.74666 -0.128,0.53334 0.14933,1.00267 0.064,0.128 0.21333,0.23467 0.128,0.10666 0.256,0.192 0.34133,0.23466 0.72533,0.23466 0.40534,0 0.78934,0 0.42666,-0.0213 0.85333,-0.0427 0.448,-0.0213 0.896,-0.0427 z m 9.85598,2.66666 v 0 q -0.0213,-0.256 -0.27733,-0.68266 -0.17067,-0.29867 -0.29867,-0.42667 -0.10666,-0.10667 -0.29866,-0.192 -0.17067,-0.064 -0.512,-0.21333 -0.34134,-0.128 -0.96,-0.448 -0.23467,-0.10667 -0.36267,0.0427 -0.128,0.17067 -0.064,0.448 0.064,0.27734 0.128,0.61867 0.0853,0.34133 0.0853,0.49067 0,0.93866 0.85334,1.42933 0.23466,0.128 0.49066,0.17066 0.256,0.064 0.512,-0.0853 0.448,-0.29867 0.576,-0.49067 0.14933,-0.17066 0.128,-0.66133 z"
         style="writing-mode:tb-rl"
         id="path594" />
      <path
         d="m 666.94863,468.18716 v 0 q -1.10933,-0.0213 -2.21866,0.0213 -1.088,0.0427 -2.19733,0.0427 -1.04533,0 -2.112,0 -1.04533,0 -2.09066,0 -0.23466,0 -0.49066,0 -0.23467,0 -0.448,0.064 -0.40534,0.10667 -0.81067,0.23467 -0.384,0.14933 -0.768,0.29867 -0.128,0.0427 -0.23466,0.14933 -0.192,0.14933 -0.14934,0.34133 0.0213,0.21334 0.256,0.29867 0.21334,0.064 0.42667,0.10666 0.23466,0.0427 0.448,0.10667 0.32,0.0853 0.64,0.14933 0.34133,0.0853 0.61866,0.23467 0.34133,0.192 0.68267,0.256 0.36266,0.0853 0.72533,0.0853 0.768,0.0213 1.51466,0.0427 0.768,0.0213 1.51467,0.0213 0.27733,0 0.32,0.27734 0.10666,0.61866 0.23466,1.23733 0.14934,0.61866 0.192,1.23733 0.0853,0.96 0.10667,1.92 0.0213,0.95999 0.0427,1.91999 0,0.17067 -0.128,0.29867 -0.576,0.53333 -1.28,0.81066 -0.704,0.27734 -1.38667,0.61867 -0.17066,0.10667 -0.44799,0 -0.256,-0.10667 -0.46934,-0.29867 -0.21333,-0.17066 -0.21333,-0.36266 -0.0213,-0.34133 0.064,-0.66133 0.0853,-0.29867 0.32,-0.55467 0.29867,-0.34133 0.66133,-0.59733 0.384,-0.256 0.832,-0.384 0.192,-0.064 0.384,-0.128 0.192,-0.064 0.34133,-0.17067 0.27734,-0.192 0.29867,-0.49066 0.0213,-0.384 -0.42667,-0.448 -0.10666,0 -0.21333,-0.0427 -0.0853,-0.0213 -0.192,-0.0427 -0.61867,-0.10666 -1.23733,-0.064 -0.59733,0.064 -1.152,0.42667 -0.46933,0.32 -0.81066,0.66133 -0.34134,0.36267 -0.66134,0.78933 -0.064,0.0853 -0.064,0.27734 0,0.192 0,0.27733 0,0.384 0.0213,0.74667 0.0213,0.36266 0.0213,0.74666 0,1.088 0.832,1.87733 0.17066,0.14933 0.34133,0.29867 0.17067,0.14933 0.34133,0.32 0.256,0.23466 0.53334,0.34133 0.29866,0.10667 0.64,0.128 0.95999,0.0427 1.72799,-0.17067 0.768,-0.192 1.57867,-0.448 0.91733,-0.29866 1.57866,-0.91733 0.42667,-0.42666 0.42667,-1.04533 0.0213,-0.32 0,-0.64 0,-0.29866 0.0213,-0.61866 0.0213,-0.128 0.064,-0.27734 0.064,-0.14933 0.128,-0.17066 0.128,-0.0213 0.256,0.0427 0.14933,0.064 0.256,0.128 0.42667,0.36267 0.78933,0.832 0.384,0.49067 0.66133,0.98133 0.256,0.42667 0.512,0.85334 0.256,0.42666 0.704,0.72533 0.10667,0.0853 0.27733,0.128 0.17067,0.064 0.29867,0.0427 0.448,-0.0853 0.74667,-0.46933 0.32,-0.384 0.384,-0.85333 0.064,-0.46933 -0.21334,-0.832 -0.29866,-0.36267 -0.59733,-0.72533 -0.29867,-0.36267 -0.61867,-0.704 -0.59733,-0.704 -1.36533,-1.088 -0.768,-0.384 -1.59999,-0.66133 -0.36267,-0.128 -0.68267,-0.32 -0.32,-0.17067 -0.40533,-0.64 -0.0213,-0.14933 -0.064,-0.29867 -0.0427,-0.14933 -0.064,-0.29866 -0.128,-0.78933 -0.23467,-1.57867 -0.10667,-0.78933 -0.23466,-1.57866 -0.0427,-0.29867 0.25599,-0.448 0.448,-0.256 0.93867,-0.32 0.512,-0.064 1.00266,-0.128 0.27734,-0.0213 0.55467,-0.0427 0.27733,-0.0213 0.53333,-0.10666 0.53334,-0.14934 1.06667,-0.32 0.53333,-0.17067 1.06666,-0.34133 0.0853,-0.0427 0.192,-0.0853 0.10667,-0.0213 0.17067,-0.0853 0.0853,-0.064 0.17067,-0.17067 0.10666,-0.10666 0.0853,-0.17066 -0.0427,-0.128 -0.14933,-0.23467 -0.0853,-0.0853 -0.192,-0.17067 -0.0427,-0.0427 -0.10667,-0.0427 -0.064,0 -0.128,0 -0.74667,-0.0427 -1.472,-0.0853 -0.72533,-0.0427 -1.472,-0.064 z m -8.57598,5.71733 v 0 q 0.32,0.0213 0.72533,-0.0853 0.40533,-0.10667 0.768,-0.23467 0.10667,-0.0213 0.192,-0.10667 0.10667,-0.0853 0.192,-0.14933 0.14933,-0.128 0.0427,-0.27733 -0.23466,-0.36267 -0.49066,-0.74667 -0.23467,-0.384 -0.512,-0.72533 -0.0853,-0.10667 -0.27733,-0.14933 -0.192,-0.0427 -0.34134,-0.0427 -0.57599,0 -0.91733,0.34133 -0.34133,0.34133 -0.59733,0.78933 -0.27733,0.53334 0.17067,0.93867 0.21333,0.192 0.448,0.32 0.256,0.128 0.59733,0.128 z"
         style="writing-mode:tb-rl"
         id="path596" />
      <path
         d="m 663.62064,488.02712 q 0.55467,0.0427 0.704,-0.27733 0.14933,-0.29867 0.0427,-0.78933 -0.32,-1.408 -1.64267,-1.96267 -0.21333,-0.0853 -0.49066,-0.0853 -0.27734,0 -0.49067,0.10667 -0.49067,0.256 -0.61867,0.768 -0.128,0.53333 0.21334,1.00266 0.384,0.55467 0.91733,0.896 0.55466,0.34133 1.36533,0.34133 z m -1.088,10.02665 q 1.152,0 2.176,-0.34133 1.04533,-0.34133 1.81333,-1.00266 0.74666,-0.61867 1.25866,-1.408 0.512,-0.78933 0.832,-1.70667 0.14933,-0.42666 0.27733,-0.89599 0.128,-0.448 0.14934,-0.91734 0.064,-0.78933 0.064,-1.59999 0,-0.81067 0,-1.62134 0,-0.49066 0.384,-0.61866 0.36266,-0.128 0.42666,-0.384 0.0853,-0.256 0.064,-0.576 -0.0213,-0.512 -0.42666,-0.896 -0.40534,-0.384 -0.91733,-0.40533 -0.42667,-0.0427 -0.85334,0 -0.42666,0.0213 -0.68266,0.27733 -0.256,0.256 -0.32,0.59733 -0.0427,0.36267 0.128,0.61867 0.23466,0.384 0.29866,0.78933 0.0853,0.40534 0.064,0.85333 -0.0427,0.91734 -0.192,1.81333 -0.128,0.896 -0.59733,1.74934 -0.512,0.93866 -1.216,1.64266 -0.68266,0.72533 -1.70666,1.10933 -0.64,0.256 -1.28,0.29867 -0.64,0.064 -1.30133,-0.128 -0.98133,-0.27734 -1.38666,-0.832 -0.40534,-0.55467 -0.512,-1.36533 -0.0853,-0.96 0,-1.92 0.0853,-0.93866 0.768,-1.74933 0.0427,-0.0853 0.0853,-0.192 0.064,-0.10667 0.0213,-0.192 -0.128,-0.46933 -0.384,-0.91733 -0.14933,-0.27733 -0.49066,-0.27733 -0.29867,-0.0213 -0.59734,0 -0.29866,0.0427 -0.59733,0.128 -0.704,0.21333 -1.36533,0.57599 -0.29867,0.17067 -0.576,0.36267 -0.29866,0.21333 -0.59733,0.42667 -0.21333,0.14933 -0.21333,0.34133 0,0.192 0.0853,0.40533 0.14933,0.34134 0.42667,0.46934 0.27733,0.12799 0.61866,0.17066 0.49067,0.0427 0.55467,0.128 0.0853,0.10667 0.064,0.576 v 0.064 q 0,0.704 0.0213,1.408 0.0213,0.704 0.064,1.408 0.0213,0.256 0.0853,0.51199 0.064,0.27734 0.192,0.46934 0.36267,0.55466 0.81067,1.024 0.46933,0.46933 1.04533,0.81066 0.768,0.46933 1.62133,0.68267 0.87467,0.23466 1.81333,0.23466 z m -0.34133,-9.21598 q -0.256,-0.0213 -0.46933,0 -0.46934,0.0427 -0.64,0.40533 -0.17067,0.384 0.0853,0.768 1.04533,1.472 2.79466,1.6 0.59733,0.064 0.59733,-0.53334 0,-0.59733 -0.34133,-1.10933 -0.32,-0.512 -0.85333,-0.832 -0.53333,-0.29866 -1.17333,-0.29866 z"
         style="writing-mode:tb-rl"
         id="path598" />
      <path
         d="m 663.62064,509.76577 q 0.55467,0.0427 0.704,-0.27733 0.14933,-0.29867 0.0427,-0.78934 -0.32,-1.40799 -1.64267,-1.96266 -0.21333,-0.0853 -0.49066,-0.0853 -0.27734,0 -0.49067,0.10666 -0.49067,0.256 -0.61867,0.768 -0.128,0.53334 0.21334,1.00267 0.384,0.55466 0.91733,0.896 0.55466,0.34133 1.36533,0.34133 z m -1.088,10.02665 q 1.152,0 2.176,-0.34133 1.04533,-0.34133 1.81333,-1.00267 0.74666,-0.61866 1.25866,-1.40799 0.512,-0.78934 0.832,-1.70667 0.14933,-0.42666 0.27733,-0.896 0.128,-0.448 0.14934,-0.91733 0.064,-0.78933 0.064,-1.6 0,-0.81066 0,-1.62133 0,-0.49066 0.384,-0.61866 0.36266,-0.128 0.42666,-0.384 0.0853,-0.256 0.064,-0.576 -0.0213,-0.512 -0.42666,-0.896 -0.40534,-0.384 -0.91733,-0.40533 -0.42667,-0.0427 -0.85334,0 -0.42666,0.0213 -0.68266,0.27733 -0.256,0.256 -0.32,0.59733 -0.0427,0.36267 0.128,0.61867 0.23466,0.384 0.29866,0.78933 0.0853,0.40533 0.064,0.85333 -0.0427,0.91733 -0.192,1.81333 -0.128,0.896 -0.59733,1.74933 -0.512,0.93867 -1.216,1.64267 -0.68266,0.72533 -1.70666,1.10933 -0.64,0.256 -1.28,0.29866 -0.64,0.064 -1.30133,-0.12799 -0.98133,-0.27734 -1.38666,-0.832 -0.40534,-0.55467 -0.512,-1.36533 -0.0853,-0.96 0,-1.92 0.0853,-0.93867 0.768,-1.74933 0.0427,-0.0853 0.0853,-0.192 0.064,-0.10667 0.0213,-0.192 -0.128,-0.46933 -0.384,-0.91733 -0.14933,-0.27734 -0.49066,-0.27734 -0.29867,-0.0213 -0.59734,0 -0.29866,0.0427 -0.59733,0.128 -0.704,0.21334 -1.36533,0.576 -0.29867,0.17067 -0.576,0.36267 -0.29866,0.21333 -0.59733,0.42666 -0.21333,0.14934 -0.21333,0.34134 0,0.192 0.0853,0.40533 0.14933,0.34133 0.42667,0.46933 0.27733,0.128 0.61866,0.17067 0.49067,0.0427 0.55467,0.128 0.0853,0.10667 0.064,0.576 v 0.064 q 0,0.704 0.0213,1.408 0.0213,0.70399 0.064,1.40799 0.0213,0.256 0.0853,0.512 0.064,0.27734 0.192,0.46934 0.36267,0.55466 0.81067,1.02399 0.46933,0.46934 1.04533,0.81067 0.768,0.46933 1.62133,0.68266 0.87467,0.23467 1.81333,0.23467 z m -0.34133,-9.21598 q -0.256,-0.0213 -0.46933,0 -0.46934,0.0427 -0.64,0.40533 -0.17067,0.384 0.0853,0.768 1.04533,1.47199 2.79466,1.59999 0.59733,0.064 0.59733,-0.53333 0,-0.59733 -0.34133,-1.10933 -0.32,-0.512 -0.85333,-0.832 -0.53333,-0.29866 -1.17333,-0.29866 z"
         style="writing-mode:tb-rl"
         id="path600" />
      <path
         d="m 668.86863,533.68043 q 0.10667,0 0.21333,0 0.128,0.0213 0.23467,0 0.10667,-0.0427 0.21333,-0.10667 0.128,-0.0427 0.192,-0.128 0.512,-0.74667 0.384,-1.49333 -0.128,-0.74667 -0.66133,-1.344 -0.36267,-0.42667 -0.74667,-0.832 -0.36266,-0.384 -0.72533,-0.78933 -1.024,-1.19467 -2.04799,-2.41066 -1.00267,-1.19467 -2.048,-2.368 -0.29867,-0.34133 -0.64,-0.64 -0.34133,-0.27733 -0.704,-0.53333 -0.27733,-0.21333 -0.61866,-0.21333 -0.34134,0 -0.61867,0.192 -0.29867,0.192 -0.576,0.40533 -0.27733,0.21333 -0.53333,0.46933 -0.93867,0.93867 -1.856,1.89866 -0.91733,0.98134 -1.83466,1.94134 -0.49067,0.49066 -0.704,1.08799 -0.21333,0.59734 -0.10667,1.30133 0.128,0.768 0.91733,1.04534 0.27734,0.0853 0.49067,-0.0213 0.23467,-0.10666 0.448,-0.27733 0.34133,-0.29867 0.55467,-0.66133 0.21333,-0.36267 0.38399,-0.768 0.32,-0.87467 0.768,-1.64267 0.448,-0.76799 1.10933,-1.42933 0.23467,-0.23466 0.512,-0.40533 0.27734,-0.14933 0.64,-0.17067 0.74667,-0.0853 1.32267,0.256 0.576,0.34134 1.04533,0.832 0.46933,0.49067 0.896,1.04533 0.42666,0.576 0.78933,1.17334 0.23467,0.40533 0.384,0.85333 0.17067,0.448 0.32,0.896 0.128,0.42666 0.21333,0.85333 0.0853,0.448 0.192,0.896 0.10667,0.27733 0.29867,0.46933 0.36266,0.42667 0.85333,0.512 0.512,0.0853 1.04533,0.10667 z m -5.78132,-3.328 q 0.17066,-0.064 0.36266,-0.128 0.192,-0.0427 0.36267,-0.128 0.21333,-0.10667 0.21333,-0.27733 0.0213,-0.17067 -0.192,-0.27733 -0.256,-0.17067 -0.55466,-0.192 -0.85334,-0.14934 -1.70667,-0.10667 -0.832,0.0427 -1.66399,0.14933 -0.40534,0.0427 -0.576,0.34134 -0.14934,0.31999 0.0213,0.68266 0.14933,0.27733 0.27733,0.55467 0.14934,0.29866 0.32,0.59733 0.36267,0.61866 0.72533,0.0213 0.81067,-1.30133 2.41067,-1.23733 z m -0.49067,1.38667 q -0.576,-0.0213 -1.06666,0.29866 -0.49067,0.32 -0.64,0.72533 -0.192,0.49067 -0.256,1.00267 -0.064,0.53333 0.17066,1.024 0.27734,0.66133 0.78934,1.06666 0.512,0.42667 1.27999,0.49067 0.448,0.0427 1.00267,-0.27733 0.55467,-0.29867 0.72533,-0.704 0.192,-0.46934 -0.256,-0.78934 -0.448,-0.27733 -0.93866,-0.064 -0.46934,0.21334 -0.66134,-0.256 -0.128,-0.38399 -0.128,-0.78933 0,-0.384 0.0853,-0.49066 0.10666,-0.10667 0.46933,-0.17067 0.192,-0.0427 0.256,-0.21333 0.0853,-0.14934 -0.0427,-0.29867 -0.21333,-0.21333 -0.42666,-0.384 -0.192,-0.17066 -0.36267,-0.17066 z"
         style="writing-mode:tb-rl"
         id="path602" />
      <path
         d="m 659.95131,539.46174 v 0 q -0.42666,0 -0.74666,0.17067 -0.32,0.19199 -0.61867,0.42666 l -0.14933,0.0853 q -0.49067,0.36267 -0.53333,0.85334 -0.0213,0.49066 0.27733,0.91733 0.128,0.21333 0.256,0.42666 0.14933,0.23467 0.17066,0.49067 0.0853,0.53333 0.10667,1.088 0.0427,0.576 0,1.10933 -0.128,1.55733 0.448,3.05066 0.0427,0.128 0.0853,0.23467 0.064,0.128 0.256,0.14933 0.384,0 0.49067,-0.34133 0.10667,-0.32 0.21333,-0.68267 0.10667,-0.34133 0.10667,-0.68266 -0.0213,-1.088 -0.10667,-2.19733 -0.064,-1.10933 -0.10666,-2.38933 0,-0.064 0.0853,-0.192 0.23466,-0.32 0.448,-0.512 0.21333,-0.192 0.384,-0.384 0.27733,-0.27733 0.29866,-0.61867 0.0213,-0.34133 -0.32,-0.59733 -0.49066,-0.40533 -1.04533,-0.40533 z m 0.192,9.72798 v 0 q -0.064,0.17067 -0.21333,0.59734 -0.14933,0.42666 -0.17067,0.85333 -0.0213,0.704 0.10667,1.13066 0.14933,0.42667 0.55466,0.704 0.87467,0.61867 1.984,0.448 0.27733,-0.0427 0.55467,-0.192 0.27733,-0.128 0.46933,-0.40533 0.192,-0.256 0.40533,-0.49067 0.23467,-0.23466 0.46934,-0.46933 0.19199,-0.17067 0.46933,-0.14933 0.36266,0.0427 0.64,0.23466 0.29866,0.21334 0.576,0.46934 0.256,0.256 0.512,0.51199 0.27733,0.27734 0.55466,0.512 0.91733,0.81067 1.6,-0.17066 0.128,-0.17067 0.192,-0.42667 0.064,-0.23466 0.0853,-0.448 0.0213,-0.40533 -0.14933,-0.576 -0.17067,-0.14933 -0.40533,-0.128 -0.32,0.0427 -0.53334,0.064 -0.192,0.0213 -0.34133,-0.0427 -0.61867,-0.23467 -1.17333,-0.59734 -0.53333,-0.34133 -0.91733,-0.91733 -0.14934,-0.23466 -0.21334,-0.29866 -0.0853,-0.10667 -0.14933,-0.192 -0.0427,-0.0853 -0.0427,-0.192 0,-1.36533 0,-2.83733 0,-1.45067 0,-2.83733 0,-0.192 0.0213,-0.23467 0.0427,-0.0213 0.192,-0.128 0.36266,-0.23466 0.61866,-0.68266 0.17067,-0.32 0.0213,-0.61867 -0.128,-0.29866 -0.40534,-0.23466 -0.0853,0.0427 -0.32,0.0427 -0.23466,0.0213 -1.00266,0.0213 -0.72533,0.0213 -1.19467,0.49066 -0.27733,0.27733 -0.576,0.55467 -0.29866,0.27733 -0.55466,0.576 -0.36267,0.40533 -0.61867,0.85333 -0.10666,0.192 0,0.448 0.10667,0.256 0.29867,0.384 0.192,0.14933 0.34133,0.064 0.14934,-0.064 0.32,-0.17067 0.128,-0.10667 0.256,-0.21333 0.14933,-0.0853 0.29867,-0.128 0.36266,-0.14934 0.59733,-0.0213 0.23467,0.14934 0.27733,0.53334 0.0427,0.384 0.0853,0.768 0.064,0.40533 0.0427,0.81066 -0.0213,0.40533 -0.10666,0.81067 -0.0853,0.42666 -0.17067,0.832 -0.0427,0.21333 -0.10667,0.23466 -0.064,0.0213 -0.21333,0 -0.49067,-0.10667 -0.96,-0.064 -0.46933,0.064 -0.91733,0.17067 -0.34133,0.064 -0.66133,0.23466 -0.29867,0.17067 -0.42667,0.512 z m 0.832,0.72534 v 0 q 0.192,-0.34134 0.32,-0.448 0.14933,-0.10667 0.29867,-0.10667 0.17066,0.0213 0.448,0.0213 0.27733,0 0.53333,0.0427 0.27733,0.064 0.384,0.34133 0.10666,0.29867 0,0.59733 -0.0853,0.29867 -0.29867,0.53334 -0.0853,0.0853 -0.192,0.14933 -0.10667,0.0853 -0.21333,0.14933 -0.34133,0.21334 -0.61867,0.14934 -0.27733,-0.0427 -0.66133,-0.40534 -0.14933,-0.17066 -0.192,-0.448 -0.0213,-0.25599 0.192,-0.57599 z"
         style="writing-mode:tb-rl"
         id="path604" />
      <path
         d="m 663.15131,566.76836 v 0 q -0.27734,0 -0.68267,-0.0427 -0.40533,-0.0213 -0.832,-0.128 -0.59733,-0.128 -0.98133,-0.66133 -0.384,-0.512 -0.42666,-1.152 -0.0427,-0.61867 0.36266,-1.10933 0.61867,-0.72533 1.344,-1.30133 0.74666,-0.576 1.728,-0.832 0.95999,-0.256 1.87733,-0.61867 0.93866,-0.34133 1.89866,-0.66133 0.40533,-0.14933 0.256,-0.49067 -0.128,-0.34133 -0.29867,-0.66133 -0.14933,-0.32 -0.49066,-0.53333 -0.896,-0.61867 -1.89867,-0.96 -1.00266,-0.34133 -2.04799,-0.59733 -0.93867,-0.21333 -1.83467,-0.576 -0.87466,-0.34133 -1.68533,-0.85333 -0.32,-0.192 -0.64,-0.34134 -0.32,-0.12799 -0.70399,-0.0853 -0.42667,0.0213 -0.704,0.29867 -0.27734,0.27733 -0.23467,0.55466 0.0427,0.29867 0.0427,0.512 0,0.23467 0.0213,0.42667 0,0.17067 -0.0213,0.32 0,0.17066 0.064,0.34133 0.46933,1.64267 2.06933,2.09066 0.32,0.0853 0.64,0.17067 0.34133,0.0853 0.66133,0.192 0.36266,0.128 0.384,0.256 0.0427,0.128 -0.23467,0.40533 -0.36267,0.36267 -0.74666,0.704 -0.384,0.36267 -0.72534,0.74667 -0.53333,0.61866 -0.91733,1.32266 -0.36266,0.704 -0.34133,1.62133 0.064,1.17333 0.832,2.00533 0.53333,0.576 1.17333,0.91733 0.64,0.36267 1.408,0.448 1.04533,0.128 2.09066,0.064 1.06666,-0.0427 2.112,-0.29866 0.832,-0.21334 1.62133,-0.49067 0.81066,-0.256 1.53599,-0.704 0.42667,-0.23466 0.36267,-0.68266 -0.0427,-0.23467 -0.128,-0.384 -0.064,-0.14934 -0.32,-0.23467 -0.14933,-0.0427 -0.256,-0.0853 -0.10666,-0.0213 -0.40533,-0.0853 -0.448,-0.10667 -0.91733,-0.0213 -0.46934,0.0853 -0.93867,0.53333 -0.27733,0.23467 -0.53333,0.36267 -0.23467,0.14933 -0.78933,0.192 -0.53333,0.064 -0.87467,0.0853 -0.34133,0.0213 -0.87466,0.0213 z m 5.07732,-6.67733 v 0 q 0,0.0427 0.10667,0.14934 0.128,0.10666 0.21333,0.21333 0.128,0.192 0.34133,0.192 0.23467,0.0213 0.448,-0.064 0.23467,-0.0853 0.256,-0.256 0.0427,-0.14933 -0.14933,-0.32 -0.256,-0.21333 -0.40533,-0.27733 -0.14934,-0.0427 -0.36267,0.10666 -0.10666,0.0853 -0.27733,0.128 -0.17067,0.064 -0.17067,0.128 z"
         style="writing-mode:tb-rl"
         id="path606" />
      <path
         d="m 663.15131,584.04833 v 0 q -0.27734,0 -0.68267,-0.0427 -0.40533,-0.0213 -0.832,-0.128 -0.59733,-0.128 -0.98133,-0.66133 -0.384,-0.512 -0.42666,-1.152 -0.0427,-0.61867 0.36266,-1.10933 0.61867,-0.72534 1.344,-1.30133 0.74666,-0.576 1.728,-0.832 0.95999,-0.256 1.87733,-0.61867 0.93866,-0.34133 1.89866,-0.66133 0.40533,-0.14933 0.256,-0.49067 -0.128,-0.34133 -0.29867,-0.66133 -0.14933,-0.32 -0.49066,-0.53333 -0.896,-0.61867 -1.89867,-0.96 -1.00266,-0.34133 -2.04799,-0.59733 -0.93867,-0.21334 -1.83467,-0.576 -0.87466,-0.34133 -1.68533,-0.85333 -0.32,-0.192 -0.64,-0.34134 -0.32,-0.128 -0.70399,-0.0853 -0.42667,0.0213 -0.704,0.29867 -0.27734,0.27733 -0.23467,0.55466 0.0427,0.29867 0.0427,0.512 0,0.23467 0.0213,0.42667 0,0.17066 -0.0213,0.32 0,0.17066 0.064,0.34133 0.46933,1.64266 2.06933,2.09066 0.32,0.0853 0.64,0.17067 0.34133,0.0853 0.66133,0.192 0.36266,0.128 0.384,0.256 0.0427,0.128 -0.23467,0.40533 -0.36267,0.36267 -0.74666,0.704 -0.384,0.36267 -0.72534,0.74667 -0.53333,0.61866 -0.91733,1.32266 -0.36266,0.704 -0.34133,1.62133 0.064,1.17333 0.832,2.00533 0.53333,0.576 1.17333,0.91733 0.64,0.36267 1.408,0.448 1.04533,0.128 2.09066,0.064 1.06666,-0.0427 2.112,-0.29866 0.832,-0.21334 1.62133,-0.49067 0.81066,-0.256 1.53599,-0.704 0.42667,-0.23467 0.36267,-0.68266 -0.0427,-0.23467 -0.128,-0.384 -0.064,-0.14934 -0.32,-0.23467 -0.14933,-0.0427 -0.256,-0.0853 -0.10666,-0.0213 -0.40533,-0.0853 -0.448,-0.10666 -0.91733,-0.0213 -0.46934,0.0853 -0.93867,0.53333 -0.27733,0.23467 -0.53333,0.36267 -0.23467,0.14933 -0.78933,0.192 -0.53333,0.064 -0.87467,0.0853 -0.34133,0.0213 -0.87466,0.0213 z m 5.07732,-6.67733 v 0 q 0,0.0427 0.10667,0.14934 0.128,0.10666 0.21333,0.21333 0.128,0.192 0.34133,0.192 0.23467,0.0213 0.448,-0.064 0.23467,-0.0853 0.256,-0.256 0.0427,-0.14933 -0.14933,-0.32 -0.256,-0.21333 -0.40533,-0.27733 -0.14934,-0.0427 -0.36267,0.10666 -0.10666,0.0853 -0.27733,0.128 -0.17067,0.064 -0.17067,0.128 z"
         style="writing-mode:tb-rl"
         id="path608" />
      <path
         d="m 668.80463,595.31229 v 0 q -0.0213,-0.448 -0.064,-0.78933 -0.0427,-0.34134 -0.128,-0.704 -0.14933,-0.59734 -0.40533,-1.17333 -0.23467,-0.55467 -0.64,-1.024 -0.23467,-0.27734 -0.512,-0.384 -0.27733,-0.0853 -0.66133,0.0213 -0.448,0.128 -0.832,0.17067 -0.384,0.0427 -1.024,0.064 -0.46933,0.0213 -0.66133,-0.448 -0.10667,-0.29867 -0.256,-0.59733 -0.128,-0.27734 -0.256,-0.576 -0.29867,-0.55467 -0.72533,-0.23467 -0.46933,0.34133 -0.81067,0.53333 -0.34133,0.192 -0.91733,0.49067 -0.14933,0.0853 -0.256,0.21333 -0.10667,0.14933 -0.17067,0.29867 -0.0427,0.14933 -0.0853,0.32 -0.0213,0.192 0.0213,0.32 0.17067,0.42666 0.0853,0.59733 -0.0853,0.17067 -0.53333,0.42666 -0.32,0.192 -0.66134,0.34134 -0.32,0.17066 -0.64,0.36266 -0.61866,0.36267 -0.93866,0.91734 -0.32,0.55466 -0.40533,1.25866 -0.10667,0.81067 0.0853,1.216 0.192,0.42666 0.74666,0.98133 0.512,0.53333 1.152,0.85333 0.64,0.34133 1.42933,0.40533 0.36267,0.0213 0.72534,0.192 0.91733,0.40534 1.62133,-0.192 0.0853,-0.064 0.17066,-0.128 0.0853,-0.0427 0.17067,-0.12799 0.256,-0.21334 0.40533,-0.53334 0.17067,-0.29866 0.0213,-0.68266 -0.10667,-0.29867 -0.14934,-0.64 -0.0427,-0.32 -0.0853,-0.64 -0.0853,-0.53333 -0.0853,-1.024 0,-0.46933 0.0427,-1.024 0.0213,-0.32 0.0427,-0.46933 0.0213,-0.128 0.49067,-0.0427 0.32,0.0427 0.81066,0.14934 0.49067,0.10666 0.87467,0.32 0.384,0.23466 0.448,0.66133 0.064,0.576 0.064,1.152 0,0.59733 -0.17067,1.19466 -0.0853,0.36267 -0.29867,0.66133 -0.21333,0.32 -0.40533,0.64 -0.17067,0.256 -0.34133,0.512 -0.14934,0.27733 -0.29867,0.55467 -0.0213,0.0427 0,0.128 0.0427,0.10666 0.0853,0.10666 0.256,-0.0853 0.49067,-0.0427 0.256,0.064 0.49067,0.17066 0.0427,0.0213 0.14933,-0.0213 0.17067,-0.064 0.42667,-0.17067 0.27733,-0.0853 0.89599,-0.21333 0.0853,-0.0213 0.29867,-0.34133 0.21333,-0.32 0.42667,-0.768 0.32,-0.768 0.53333,-1.57867 0.23466,-0.81066 0.21333,-1.66399 z m -7.23199,1.04533 v 0 q -0.0213,0.14933 -0.0427,0.36267 0,0.21333 -0.0427,0.42666 -0.10667,0.46933 -0.61867,0.40533 -0.59733,-0.064 -1.04533,-0.49066 -0.42666,-0.42667 -0.512,-1.024 -0.0213,-0.256 0.0427,-0.512 0.064,-0.23467 0.27733,-0.42667 0.21334,-0.192 0.42667,-0.40533 0.23466,-0.192 0.49066,-0.29866 0.832,-0.36267 0.93867,0.61866 0.0213,0.29867 0.0427,0.61867 0.0213,0.34133 0.0427,0.72533 z m 2.21867,6.78399 v 0 q 0.576,0 1.23733,-0.128 0.68266,-0.128 1.38666,-0.256 0.256,-0.064 0.512,-0.17067 0.256,-0.0853 0.512,-0.192 0.192,-0.0853 0.21333,-0.34133 0,-0.064 -0.10666,-0.14933 -0.10667,-0.064 -0.192,-0.0853 -0.192,-0.064 -0.40534,-0.0853 -0.21333,-0.0213 -0.42666,-0.0427 -0.46933,-0.0427 -0.91733,-0.0853 -0.448,-0.0427 -0.91734,-0.064 -1.00266,-0.0427 -1.36533,-1.00266 0,-0.0427 -0.0213,-0.10667 -0.0213,-0.064 -0.0853,-0.0853 -0.128,-0.064 -0.23467,0.064 -0.064,0.0853 -0.34133,0.21333 -0.27734,0.14933 -0.576,0.36267 -0.29867,0.21333 -0.448,0.51199 -0.256,0.49067 0.0853,0.81067 0.40534,0.40533 0.896,0.61867 0.512,0.23466 1.19467,0.21333 z"
         style="writing-mode:tb-rl"
         id="path610" />
      <path
         d="m 663.15131,618.24558 v 0 q -0.27734,0 -0.68267,-0.0427 -0.40533,-0.0213 -0.832,-0.128 -0.59733,-0.128 -0.98133,-0.66133 -0.384,-0.512 -0.42666,-1.152 -0.0427,-0.61867 0.36266,-1.10933 0.61867,-0.72534 1.344,-1.30133 0.74666,-0.576 1.728,-0.832 0.95999,-0.256 1.87733,-0.61867 0.93866,-0.34133 1.89866,-0.66133 0.40533,-0.14933 0.256,-0.49067 -0.128,-0.34133 -0.29867,-0.66133 -0.14933,-0.32 -0.49066,-0.53333 -0.896,-0.61867 -1.89867,-0.96 -1.00266,-0.34133 -2.04799,-0.59733 -0.93867,-0.21334 -1.83467,-0.576 -0.87466,-0.34133 -1.68533,-0.85333 -0.32,-0.192 -0.64,-0.34134 -0.32,-0.128 -0.70399,-0.0853 -0.42667,0.0213 -0.704,0.29867 -0.27734,0.27733 -0.23467,0.55466 0.0427,0.29867 0.0427,0.512 0,0.23467 0.0213,0.42667 0,0.17066 -0.0213,0.32 0,0.17066 0.064,0.34133 0.46933,1.64266 2.06933,2.09066 0.32,0.0853 0.64,0.17067 0.34133,0.0853 0.66133,0.192 0.36266,0.128 0.384,0.256 0.0427,0.128 -0.23467,0.40533 -0.36267,0.36267 -0.74666,0.704 -0.384,0.36267 -0.72534,0.74667 -0.53333,0.61866 -0.91733,1.32266 -0.36266,0.704 -0.34133,1.62133 0.064,1.17333 0.832,2.00533 0.53333,0.576 1.17333,0.91733 0.64,0.36267 1.408,0.448 1.04533,0.128 2.09066,0.064 1.06666,-0.0427 2.112,-0.29866 0.832,-0.21334 1.62133,-0.49067 0.81066,-0.256 1.53599,-0.704 0.42667,-0.23466 0.36267,-0.68266 -0.0427,-0.23467 -0.128,-0.384 -0.064,-0.14934 -0.32,-0.23467 -0.14933,-0.0427 -0.256,-0.0853 -0.10666,-0.0213 -0.40533,-0.0853 -0.448,-0.10666 -0.91733,-0.0213 -0.46934,0.0853 -0.93867,0.53333 -0.27733,0.23467 -0.53333,0.36267 -0.23467,0.14933 -0.78933,0.192 -0.53333,0.064 -0.87467,0.0853 -0.34133,0.0213 -0.87466,0.0213 z m 5.07732,-6.67733 v 0 q 0,0.0427 0.10667,0.14934 0.128,0.10666 0.21333,0.21333 0.128,0.192 0.34133,0.192 0.23467,0.0213 0.448,-0.064 0.23467,-0.0853 0.256,-0.256 0.0427,-0.14933 -0.14933,-0.32 -0.256,-0.21333 -0.40533,-0.27733 -0.14934,-0.0427 -0.36267,0.10666 -0.10666,0.0853 -0.27733,0.128 -0.17067,0.064 -0.17067,0.128 z"
         style="writing-mode:tb-rl"
         id="path612" />
      <path
         d="m 660.99664,632.47487 v 0 q 0,0.14933 -0.0427,0.256 -0.17067,0.576 -0.36267,1.13066 -0.128,0.40533 -0.27733,0.78933 -0.14933,0.384 -0.27733,0.78934 -0.17067,0.61866 -0.256,1.19466 -0.10667,0.72533 -0.0213,1.06666 0.10667,0.36267 0.32,0.78934 0.10667,0.23466 0.42667,0.59733 0.34133,0.36267 0.832,0.78933 0.23466,0.192 0.66133,0.42667 0.448,0.256 0.93866,0.448 0.512,0.21333 0.93867,0.23466 0.78933,0.064 1.536,-0.10666 0.74666,-0.14934 1.47199,-0.49067 0.17067,-0.0853 0.36267,-0.21333 0.192,-0.10667 0.448,-0.40533 0.42667,-0.49067 0.66133,-0.91734 0.23467,-0.40533 0.36267,-0.832 0.14933,-0.42666 0.32,-0.95999 0.10666,-0.42667 0.21333,-0.91734 0.10667,-0.46933 0.256,-1.02399 0.10667,-0.384 0.192,-0.78934 0.0853,-0.40533 0.0853,-1.13066 0,-0.55467 -0.064,-0.896 -0.064,-0.34133 -0.17066,-0.64 -0.0853,-0.29867 -0.17067,-0.74666 -0.192,-0.93867 -0.14933,-1.856 0.064,-0.91733 0.34133,-1.81333 0.17067,-0.46933 0.256,-0.91733 0.10667,-0.448 0.128,-0.704 0.064,-0.40534 0.0427,-0.61867 -0.0213,-0.192 -0.064,-0.34133 -0.0213,-0.10667 -0.0853,-0.23467 -0.0427,-0.10666 -0.064,-0.192 -0.064,-0.40533 -0.14933,-0.512 -0.064,-0.10666 -0.256,-0.192 -0.14933,-0.0427 -0.448,-0.064 -0.27733,0 -0.59733,0.256 -0.40533,0.32 -0.49067,1.10934 -0.0213,0.36266 -0.0427,0.70399 0,0.36267 -0.0213,0.72534 0,0.384 -0.0213,0.768 0,0.40533 -0.0427,0.78933 -0.0213,0.21333 -0.0853,0.42666 -0.0427,0.23467 -0.10667,0.46934 -0.0853,0.46933 0,0.85333 0.10667,0.384 0.29867,0.96 0.0853,0.21333 0.17067,0.448 0.10666,0.23466 0.14933,0.49066 0.17067,0.68267 0.27733,1.408 0.14934,1.30133 -0.23466,2.51733 -0.17067,0.53333 -0.32,0.96 -0.128,0.42666 -0.42667,0.91733 -0.27733,0.49066 -0.704,0.81066 -0.42666,0.32 -1.024,0.384 -0.72533,0.0853 -1.36533,-0.0427 -0.61866,-0.128 -1.28,-0.59734 -0.42666,-0.29866 -0.61866,-0.61866 -0.192,-0.29867 -0.32,-0.832 -0.064,-0.36267 -0.128,-0.81067 -0.064,-0.42666 0,-0.74666 0.0853,-0.53333 0.21333,-1.04533 0.128,-0.512 0.34133,-0.98133 0.21334,-0.49067 0.53334,-0.91734 0.34133,-0.42666 0.61866,-0.87466 0.064,-0.10667 0.128,-0.23467 0.064,-0.128 0.064,-0.256 0,-0.14933 -0.29866,-0.384 -0.29867,-0.21333 -0.448,-0.192 -0.29867,0 -0.61867,0.0213 -0.29866,0.0427 -0.59733,0.064 -0.55467,0.064 -1.10933,0.0853 -0.55467,0.0427 -1.13067,-0.10667 -0.384,-0.10666 -0.78933,-0.17066 -0.40533,-0.064 -0.81066,-0.128 -0.27734,-0.0213 -0.42667,0.0853 -0.14933,0.10667 -0.14933,0.21333 0,0.384 0,0.59734 0,0.23466 0.0213,0.68266 0.0213,0.384 0.192,0.59733 0.192,0.23467 0.512,0.36267 0.256,0.10667 0.49066,0.192 0.23467,0.0853 0.49067,0.128 0.448,0.0427 0.87467,0 0.44799,-0.0427 0.89599,-0.0853 z m 1.92,-4.90666 v 0 q 0,-0.14934 -0.0213,-0.36267 0,-0.192 -0.10667,-0.59733 -0.0427,-0.21333 -0.192,-0.49067 -0.14933,-0.27733 -0.29866,-0.576 -0.14934,-0.32 -0.36267,-0.55466 -0.192,-0.21333 -0.448,-0.384 -0.42667,-0.29867 -0.98133,-0.192 -0.53333,0.128 -0.96,0.53333 -0.40533,0.40533 -0.448,0.93867 0,0.29866 -0.0427,0.576 -0.0427,0.29866 0.0213,0.61866 0.10666,0.512 0.34133,0.78933 0.23467,0.27734 0.74667,0.34134 0.49066,0.0427 0.98133,0.064 0.512,0.0427 1.00266,0.064 0.576,0.0213 0.66133,-0.0853 0.10667,-0.10666 0.10667,-0.68266 z"
         style="writing-mode:tb-rl"
         id="path614" />
      <path
         d="m 665.2633,653.70149 v 0 q -0.384,-0.192 -0.68266,-0.34133 -0.29867,-0.14933 -0.42667,-0.21333 -0.256,-0.14933 -0.34133,-0.21333 -0.0853,-0.064 -0.21333,-0.14934 -0.384,-0.34133 -0.98134,-0.0853 -0.51199,0.21333 -0.95999,0.512 -0.448,0.29866 -0.81067,0.72533 -0.32,0.384 -0.40533,1.00267 -0.064,0.61866 0.17066,0.98133 0.29867,0.448 0.68267,0.81066 0.384,0.36267 0.832,0.66134 0.192,0.14933 0.448,0.21333 0.27733,0.0853 0.512,0.0427 0.49066,-0.0853 0.96,-0.25599 0.49066,-0.17067 0.98133,-0.29867 0.21333,-0.064 0.42666,-0.14933 0.21334,-0.064 0.42667,-0.0427 0.256,0.0213 0.49067,0.10667 0.23466,0.10666 0.46933,0.23466 0.78933,0.36267 1.6,0.66133 0.81066,0.32 1.64266,0.53334 0.704,0.14933 1.10933,-0.32 0.17067,-0.192 0.10667,-0.512 -0.064,-0.32 -0.27734,-0.61867 -0.29866,-0.40533 -0.70399,-0.68266 -0.40534,-0.256 -0.87467,-0.448 -0.29867,-0.128 -0.59733,-0.29867 -0.27733,-0.14933 -0.55467,-0.32 -0.10666,-0.0853 -0.128,-0.14933 -0.0213,-0.064 0.0427,-0.23467 0.064,-0.23466 0.17067,-0.46933 0.10666,-0.23467 0.21333,-0.46933 0.61866,-1.23733 0.93866,-2.56 0.34134,-1.32266 0.29867,-2.73066 -0.0213,-0.98133 -0.576,-1.81333 -0.53333,-0.832 -1.408,-1.344 -0.85333,-0.512 -1.81333,-0.576 -0.49066,-0.0213 -1.00266,0 -0.49067,0.0213 -0.93867,0.23467 -0.704,0.29866 -1.30133,0.74666 -0.576,0.46934 -1.13066,0.96 -0.42667,0.36267 -0.832,0.768 -0.40534,0.42667 -0.832,0.832 -0.46933,0.42667 -0.78933,-0.0853 -0.32,-0.512 -0.78934,-0.74667 -0.46933,-0.23467 -0.98133,-0.384 -0.14933,-0.0427 -0.34133,-0.064 -0.17067,0 -0.29867,0.064 -0.34133,0.17067 -0.68266,0.512 -0.34133,0.34133 -0.40533,0.832 -0.064,0.40533 -0.10667,0.81066 -0.0427,0.40534 -0.0427,0.81067 -0.0213,0.896 0.064,1.77066 0.0853,0.896 0.34134,1.77067 0.10666,0.42666 0.29866,0.832 0.192,0.40533 0.55467,0.704 0.42666,0.40533 0.832,0.34133 0.42666,-0.0427 0.70399,-0.55467 0.21334,-0.384 0.32,-0.832 0.10667,-0.42666 0.192,-0.85333 0.192,-0.91733 0.27734,-1.856 0.10666,-0.93866 0.46933,-1.81333 0.128,-0.32 0.29867,-0.55466 0.192,-0.23467 0.51199,-0.36267 0.46934,-0.21333 0.93867,-0.448 0.49067,-0.21333 0.98133,-0.40533 0.59733,-0.23467 1.216,-0.384 0.64,-0.14933 1.30133,-0.14933 0.53333,0 0.96,0.23466 0.448,0.23467 0.55467,0.74667 0.17066,0.87466 0.14933,1.64266 -0.0213,0.768 -0.23467,1.55733 -0.10666,0.36267 -0.256,0.72534 -0.128,0.384 -0.29866,0.72533 -0.0853,0.21333 -0.23467,0.36266 -0.128,0.17067 -0.23467,0.32 z m -2.04799,1.04534 v 0 q 0.27733,-0.0213 0.46933,0.17066 0.192,0.192 0.256,0.42667 0.0213,0.192 -0.0853,0.29866 -0.10667,0.128 -0.256,0.21334 -0.23467,0.10666 -0.46934,0.21333 -0.21333,0.10667 -0.448,0.14933 -0.34133,0.0427 -0.44799,-0.128 -0.10667,-0.17066 0.064,-0.46933 0.0853,-0.14933 0.17066,-0.29866 0.10667,-0.128 0.21333,-0.256 0.10667,-0.10667 0.23467,-0.21334 0.14933,-0.10666 0.29867,-0.10666 z"
         style="writing-mode:tb-rl"
         id="path616" />
      <path
         d="m 660.50598,664.60283 q -0.21334,0 -0.55467,0 -0.32,0.0213 -0.59733,0.0213 -0.27733,0 -0.36267,0 -0.384,0.0213 -0.49066,0.0213 -0.0853,0 -0.27734,0.0213 -0.23466,0.0213 -0.44799,0.128 -0.192,0.10667 -0.29867,0.36267 -0.192,0.51199 0.192,0.89599 0.53333,0.49067 1.13066,0.74667 0.61867,0.256 1.344,0.17067 0.10667,-0.0213 0.192,-0.0427 0.10667,0 0.192,-0.0213 0.14933,-0.0213 0.29867,0.0427 0.14933,0.064 0.192,0.14934 0.0853,0.17066 -0.0213,0.31999 -0.0853,0.17067 -0.256,0.256 l -0.66133,0.40534 q -0.29866,0.192 -0.27733,0.55466 0,0.36267 0.21333,0.576 0.23467,0.21333 0.46933,0.384 0.72534,0.55467 1.30134,0 0.10666,-0.0853 0.192,-0.17067 0.10666,-0.064 0.21333,-0.12799 0.64,-0.49067 1.42933,-0.42667 0.59733,0.0427 1.088,0.256 0.512,0.23467 0.98133,0.576 0.448,0.29866 0.448,0.87466 -0.0213,0.23467 0,0.42667 0.0213,0.21333 0.0213,0.42667 0,0.49066 -0.10666,0.91733 -0.0853,0.42666 -0.512,0.72533 -0.27734,0.21333 -0.576,0.384 -0.27734,0.17066 -0.576,0.32 -0.78933,0.42666 -1.64267,0.448 -0.85333,0.0427 -1.72799,-0.14934 -0.34134,-0.064 -0.64,-0.21333 -0.29867,-0.14933 -0.61867,-0.256 -0.10666,-0.0427 -0.29866,-0.0853 -0.192,-0.0213 -0.21334,0.0853 -0.0213,0.10667 -0.0213,0.23467 0.0213,0.128 0.064,0.21333 0.29867,0.55467 0.68267,0.98133 0.40533,0.42667 1.06666,0.55467 0.256,0.064 0.49067,0.10667 0.256,0.0427 0.512,0.064 0.78933,0.10667 1.55733,0.0427 0.78933,-0.0427 1.51466,-0.21333 0.87467,-0.192 1.536,-0.704 0.66133,-0.49067 1.25866,-1.10933 0.34134,-0.384 0.512,-0.81067 0.17067,-0.42666 0.128,-0.91733 0,-0.064 0,-0.17067 0.0213,-0.10666 0.0427,-0.40533 0.0427,-0.49066 -0.14933,-1.06666 -0.17067,-0.576 -0.704,-1.088 -0.59734,-0.576 -1.25867,-1.04533 -0.64,-0.46934 -1.45066,-0.66134 -0.46934,-0.0853 -0.93867,-0.17066 -0.448,-0.064 -0.896,-0.17067 -0.10666,-0.0213 -0.23466,-0.14933 -0.10667,-0.10667 -0.10667,-0.21333 0,-0.10667 0.10667,-0.23467 0.128,-0.10667 0.23466,-0.128 0.49067,-0.0853 1.00267,-0.17067 0.512,-0.064 1.00266,-0.128 0.448,-0.0427 0.87467,-0.064 0.448,-0.0213 0.896,-0.064 0.29866,-0.0213 0.512,-0.23466 0.23466,-0.192 0.27733,-0.448 0.10667,-0.78933 -0.256,-1.408 -0.36267,-0.59733 -1.04533,-0.81067 -0.64,-0.19199 -0.98133,-0.36266 -0.34134,-0.14933 -0.81067,-0.448 -0.34133,-0.21333 -0.72533,-0.40533 -0.36267,-0.192 -0.78933,-0.192 -0.21334,0 -0.46934,0 -0.23466,0.0213 -0.38399,0.14933 -0.27734,0.21333 -0.49067,0.46933 -0.21333,0.27734 -0.384,0.576 -0.14933,0.27733 -0.23467,0.576 -0.0853,0.32 -0.192,0.64 -0.128,0.384 -0.49066,0.384 z m 4.52266,0.0853 q -0.27734,-0.0213 -0.55467,-0.0853 -0.27733,-0.0427 -0.55466,-0.128 -0.21334,-0.0853 -0.23467,-0.23467 -0.0213,-0.128 0.14933,-0.29866 0.42667,-0.40534 0.96,-0.448 0.53333,-0.0213 1.00267,0.34133 0.10666,0.0853 0.17066,0.21333 0.064,0.128 0.0853,0.21334 0.064,0.17066 -0.14934,0.256 -0.21333,0.0853 -0.34133,0.128 -0.192,0.064 -0.53333,0.0427 z m -2.21867,6.44266 q 0,0.0853 0.0213,0.14933 0.23466,0.17067 0.46933,0.21334 0.256,0.0427 0.27733,0.17066 0.064,0.10667 0.27734,-0.0213 0.064,-0.0427 0.17066,-0.128 0.10667,-0.0853 0.10667,-0.17067 0,-0.10666 -0.10667,-0.23466 -0.0853,-0.10667 -0.192,-0.17067 -0.29866,-0.17067 -0.59733,-0.10667 -0.10667,0.0213 -0.14933,0.0853 -0.0427,0.064 -0.27734,0.21333 z m -0.34133,1.472 -0.0427,-0.21334 q -0.0213,-0.14933 -0.12799,-0.256 -0.46934,-0.46933 -1.13067,-0.40533 -0.192,0.0427 -0.23467,0.256 -0.064,0.29867 0.14934,0.64 0.21333,0.36267 0.49066,0.448 0.832,0.256 0.896,-0.46933 z"
         style="writing-mode:tb-rl"
         id="path618" />
    </g>
  </g>
</svg>
