<?xml version="1.0" encoding="UTF-8" standalone="no"?>
<!-- Created with Inkscape (http://www.inkscape.org/) -->

<svg
   width="186.74934mm"
   height="187.76268mm"
   viewBox="0 0 186.74934 187.76268"
   version="1.1"
   id="svg5"
   inkscape:version="1.2.1 (9c6d41e410, 2022-07-14)"
   sodipodi:docname="Examples.svg"
   inkscape:export-filename="..\..\Repos\GenshinFonts\readme_assets\Examples.svg"
   inkscape:export-xdpi="96"
   inkscape:export-ydpi="96"
   xmlns:inkscape="http://www.inkscape.org/namespaces/inkscape"
   xmlns:sodipodi="http://sodipodi.sourceforge.net/DTD/sodipodi-0.dtd"
   xmlns="http://www.w3.org/2000/svg"
   xmlns:svg="http://www.w3.org/2000/svg">
  <sodipodi:namedview
     id="namedview7"
     pagecolor="#505050"
     bordercolor="#eeeeee"
     borderopacity="1"
     inkscape:showpageshadow="0"
     inkscape:pageopacity="0"
     inkscape:pagecheckerboard="0"
     inkscape:deskcolor="#505050"
     inkscape:document-units="mm"
     showgrid="false"
     inkscape:zoom="1.0444209"
     inkscape:cx="233.14355"
     inkscape:cy="438.52052"
     inkscape:window-width="1920"
     inkscape:window-height="1009"
     inkscape:window-x="-8"
     inkscape:window-y="-8"
     inkscape:window-maximized="1"
     inkscape:current-layer="layer1" />
  <defs
     id="defs2">
    <rect
       x="637.67395"
       y="345.64609"
       width="27.766582"
       height="353.30585"
       id="rect465" />
    <rect
       x="261.38885"
       y="85.214684"
       width="292.02786"
       height="94.789368"
       id="rect573" />
    <rect
       x="598.41772"
       y="325.53925"
       width="137.87544"
       height="386.81723"
       id="rect1233" />
    <rect
       x="56.193687"
       y="310.75787"
       width="597.14258"
       height="690.57306"
       id="rect970" />
    <rect
       x="157.0715"
       y="194.30829"
       width="503.7121"
       height="95.461563"
       id="rect964" />
  </defs>
  <g
     inkscape:groupmode="layer"
     id="layer2"
     inkscape:label="图层 2"
     style="display:inline"
     sodipodi:insensitive="true"
     transform="translate(-10.870687,-16.443952)">
    <rect
       style="fill:#b9e1ff;fill-opacity:0.695793;stroke:#0054a1;stroke-width:1.565;stroke-linecap:round;stroke-linejoin:round;stroke-dasharray:none;stroke-opacity:1"
       id="rect1537"
       width="185.18436"
       height="186.19768"
       x="11.653188"
       y="17.226452" />
    <path
       style="fill:#b9e1ff;fill-opacity:0.695793;stroke:#000000;stroke-width:0.565;stroke-linecap:round;stroke-linejoin:round;stroke-dasharray:none;stroke-opacity:1"
       d="M 20.03559,79.88903 H 189.00682"
       id="path5961" />
  </g>
  <g
     inkscape:label="图层 1"
     inkscape:groupmode="layer"
     id="layer1"
     transform="translate(-10.870687,-16.443952)">
    <text
       xml:space="preserve"
       transform="matrix(0.26458333,0,0,0.26458333,-2.2799716,0)"
       id="text962"
       style="font-style:normal;font-variant:normal;font-weight:bold;font-stretch:normal;font-size:24px;font-family:'Source Han Serif SC';-inkscape-font-specification:'Source Han Serif SC, Bold';font-variant-ligatures:normal;font-variant-caps:normal;font-variant-numeric:normal;font-variant-east-asian:normal;text-align:center;white-space:pre;shape-inside:url(#rect964);display:inline;fill:#000000;stroke-width:2.51339;stroke-linecap:round;stroke-linejoin:round"><tspan
         x="300.92773"
         y="218.42859"
         id="tspan882"><tspan
           style="font-weight:500;-inkscape-font-specification:'Source Han Serif SC, Medium'"
           id="tspan880">「向着星辰与深渊」
</tspan></tspan><tspan
         x="265.83967"
         y="248.42859"
         id="tspan890"><tspan
           style="font-weight:500;-inkscape-font-specification:'Source Han Serif SC, Medium'"
           id="tspan884">“</tspan><tspan
           style="font-weight:500;-inkscape-font-specification:'Source Han Serif SC, Medium'"
           id="tspan886">Ad astra abyssosque</tspan><tspan
           style="font-weight:500;-inkscape-font-specification:'Source Han Serif SC, Medium'"
           id="tspan888">”
</tspan></tspan><tspan
         x="261.59469"
         y="278.42859"
         id="tspan894"><tspan
           style="font-size:17.3333px"
           id="tspan892">（这句话用作测试文本再合适不过了）</tspan></tspan></text>
    <text
       xml:space="preserve"
       transform="matrix(0.26458333,0,0,0.26458333,4.6656464,2.9635792)"
       id="text968"
       style="font-style:normal;font-variant:normal;font-weight:500;font-stretch:normal;font-size:21.3333px;font-family:'Source Han Serif SC';-inkscape-font-specification:'Source Han Serif SC, Medium';font-variant-ligatures:normal;font-variant-caps:normal;font-variant-numeric:normal;font-variant-east-asian:normal;text-align:start;white-space:pre;shape-inside:url(#rect970);display:inline;fill:#000000;stroke-width:2.51339;stroke-linecap:round;stroke-linejoin:round"
       x="-63.509232"
       y="0"><tspan
         x="56.193359"
         y="332.19778"
         id="tspan896">提瓦特通用语 / Teyvat Common Language (TCL)
</tspan><tspan
         x="56.193359"
         y="358.8644"
         id="tspan898">   v1.002
</tspan><tspan
         x="56.193359"
         y="385.53103"
         id="tspan902">   <tspan
   style="font-weight:normal;font-family:'Teyvat Common Language';-inkscape-font-specification:'Teyvat Common Language, Normal'"
   id="tspan900">Ad astra abyssosque</tspan>
</tspan><tspan
         x="56.193359"
         y="414.01098"
         id="tspan904">
</tspan><tspan
         x="56.193359"
         y="440.67761"
         id="tspan906">稻妻文 / Inazuma Language (and No Vert) (IL &amp; ILNV)
</tspan><tspan
         x="56.193359"
         y="467.34423"
         id="tspan908">   v1.001
</tspan><tspan
         x="56.193359"
         y="494.01086"
         id="tspan912">   <tspan
   style="font-weight:normal;font-family:'Inazuma Language';-inkscape-font-specification:'Inazuma Language, Normal'"
   id="tspan910">Ad astra abyssosque</tspan>
</tspan><tspan
         x="56.193359"
         y="522.91747"
         id="tspan914">
</tspan><tspan
         x="56.193359"
         y="549.58407"
         id="tspan916">赤沙文 / Deshret Languange (DL)
</tspan><tspan
         x="56.193359"
         y="576.2507"
         id="tspan924">   v0.001<tspan
   style="fill:#ba2b00"
   id="tspan918">（</tspan><tspan
   style="fill:#ba2b00"
   id="tspan920">制作中 / </tspan><tspan
   style="fill:#ba2b00"
   id="tspan922">WIP）</tspan>
</tspan><tspan
         x="56.193359"
         y="602.91732"
         id="tspan928">   <tspan
   style="font-weight:normal;font-family:'Deshret Language';-inkscape-font-specification:'Deshret Language, Normal'"
   id="tspan926">AD ASTRA AB  SSOS    E</tspan>
</tspan><tspan
         x="56.193359"
         y="632.1033"
         id="tspan930">
</tspan><tspan
         x="56.193359"
         y="658.76992"
         id="tspan932">坎瑞亚文 / Kanri'ah Languange (KL)
</tspan><tspan
         x="56.193359"
         y="685.43655"
         id="tspan934">   v1.001
</tspan><tspan
         x="56.193359"
         y="712.12984"
         id="tspan938">   <tspan
   style="font-weight:normal;font-family:'Khaenri\'ah Language';-inkscape-font-specification:'Khaenri\'ah Language, Normal'"
   id="tspan936">Ad astra abyssosque</tspan>
</tspan></text>
    <text
       xml:space="preserve"
       transform="matrix(0.26458333,0,0,0.26458333,-4.7427997,0.28406429)"
       id="text1231"
       style="font-style:normal;font-variant:normal;font-weight:500;font-stretch:normal;font-size:21.3333px;font-family:'Source Han Serif SC';-inkscape-font-specification:'Source Han Serif SC, Medium';font-variant-ligatures:normal;font-variant-caps:normal;font-variant-numeric:normal;font-variant-east-asian:normal;text-align:start;writing-mode:tb-rl;direction:ltr;white-space:pre;shape-inside:url(#rect1233);display:inline;fill:#000000;stroke-width:2.51339;stroke-linecap:round;stroke-linejoin:round"><tspan
         x="722.95966"
         y="325.53906"
         id="tspan940">稻妻文（纵书）/ IL (Vertical Writting)
</tspan><tspan
         x="696.29303"
         y="325.53906"
         id="tspan942">   v1.001
</tspan></text>
    <text
       xml:space="preserve"
       transform="matrix(0.26458333,0,0,0.26458333,-1.7733113,2.786632)"
       id="text571"
       style="font-weight:bold;font-size:29.3333px;line-height:1;font-family:'Source Han Serif SC';-inkscape-font-specification:'Source Han Serif SC, Bold';text-align:center;white-space:pre;shape-inside:url(#rect573);display:inline;fill:#000000;stroke-width:2.13543;stroke-linecap:round;stroke-linejoin:round"><tspan
         x="271.86376"
         y="118.06815"
         id="tspan946"><tspan
   style="font-size:37.3333px"
   id="tspan944">Genshin Fonts</tspan>
</tspan><tspan
         x="317.24646"
         y="148.36145"
         id="tspan948">提瓦特的ABC</tspan></text>
    <g
       aria-label="Ad astra abyssosque"
       transform="matrix(0.26458333,0,0,0.26458333,-4.2333335,-0.52916667)"
       id="text463"
       style="font-size:21.3333px;line-height:0;font-family:'Inazuma Language';-inkscape-font-specification:'Inazuma Language, Normal';writing-mode:tb-rl;white-space:pre;shape-inside:url(#rect465);stroke-width:2.13543;stroke-linecap:round;stroke-linejoin:round">
      <path
         d="m 668.30007,350.72381 v 0 q 0.64,0.064 0.81066,-0.29867 0.17067,-0.36266 0.0427,-0.91733 -0.36267,-1.64266 -1.89866,-2.28266 -0.23467,-0.0853 -0.576,-0.10667 -0.32,0 -0.55467,0.128 -0.576,0.29867 -0.72533,0.896 -0.14933,0.59733 0.256,1.152 0.448,0.64 1.06666,1.024 0.61867,0.40533 1.57867,0.40533 z m -1.28,11.60531 v 0 q 1.344,0 2.53866,-0.40533 1.19467,-0.384 2.09067,-1.152 0.85333,-0.704 1.45066,-1.62133 0.59733,-0.91733 0.96,-1.96266 0.17067,-0.512 0.32,-1.04533 0.14933,-0.53333 0.192,-1.06667 0.064,-0.91733 0.064,-1.85599 0,-0.91734 0,-1.87733 0,-0.576 0.448,-0.704 0.42666,-0.14934 0.49066,-0.448 0.0853,-0.29867 0.064,-0.66134 -0.0213,-0.59733 -0.49066,-1.04533 -0.46933,-0.448 -1.04533,-0.46933 -0.512,-0.0427 -1.00267,0 -0.49066,0.0213 -0.78933,0.32 -0.27733,0.32 -0.34133,0.704 -0.064,0.40533 0.128,0.704 0.27733,0.448 0.34133,0.91733 0.0853,0.46933 0.064,0.98133 -0.0427,1.06667 -0.21333,2.112 -0.14934,1.04533 -0.68267,2.02666 -0.59733,1.06667 -1.408,1.89867 -0.78933,0.83199 -1.98399,1.27999 -0.74667,0.29867 -1.49334,0.36267 -0.72533,0.064 -1.49333,-0.17067 -1.13066,-0.32 -1.62133,-0.96 -0.46933,-0.63999 -0.576,-1.57866 -0.10666,-1.10933 -0.0213,-2.21866 0.10667,-1.088 0.91733,-2.02667 0.0427,-0.10666 0.0853,-0.23466 0.064,-0.128 0.0213,-0.21334 -0.128,-0.53333 -0.42667,-1.06666 -0.0853,-0.128 -0.256,-0.23467 -0.17066,-0.0853 -0.32,-0.0853 -0.34133,-0.0213 -0.704,0 -0.34133,0.0427 -0.68266,0.14933 -0.81067,0.256 -1.57867,0.66134 -0.34133,0.192 -0.68266,0.42666 -0.34133,0.256 -0.68267,0.49067 -0.23466,0.17066 -0.23466,0.384 -0.0213,0.23466 0.10666,0.49066 0.14934,0.384 0.49067,0.53334 0.32,0.14933 0.704,0.19199 0.576,0.064 0.66133,0.17067 0.0853,0.10667 0.064,0.66133 v 0.064 q 0,0.81067 0.0213,1.62133 0.0213,0.832 0.064,1.64267 0.0213,0.29866 0.10667,0.59733 0.0853,0.32 0.23467,0.53333 0.40533,0.64 0.93866,1.17333 0.53333,0.55467 1.19467,0.96 0.896,0.53334 1.89866,0.78934 1.00267,0.25599 2.06933,0.25599 z m -0.384,-10.66665 v 0 q -0.29867,-0.0213 -0.53333,0 -0.55467,0.064 -0.74667,0.49067 -0.192,0.42667 0.0853,0.87467 1.21599,1.70666 3.24266,1.85599 0.68266,0.064 0.68266,-0.61866 0,-0.704 -0.384,-1.30133 -0.384,-0.576 -1.00266,-0.93867 -0.61867,-0.36267 -1.344,-0.36267 z"
         style="font-feature-settings:vrt2"
         id="path469" />
      <path
         d="m 674.55073,371.03311 -1.792,-1.57867 q -0.91733,-0.78933 -1.984,-1.152 -1.04533,-0.34133 -2.26133,-0.14933 -0.064,0.0213 -0.192,0.064 -0.10666,0.0427 -0.10666,0.10667 -0.0213,0.0853 0.0427,0.192 0.064,0.10666 0.128,0.14933 0.34133,0.256 0.68267,0.49066 0.34133,0.23467 0.704,0.42667 0.93866,0.576 1.57866,1.38667 0.64,0.83199 0.896,1.89866 0.23467,0.98133 0.27733,1.92 0.0427,0.95999 -0.576,1.94133 -0.91733,1.34399 -2.26133,1.87733 -1.34399,0.53333 -2.87999,0.064 -0.61867,-0.192 -1.19467,-0.49067 -0.55466,-0.27733 -1.024,-0.74666 -0.55466,-0.59734 -0.32,-1.38667 0.10667,-0.384 0.40534,-0.53333 0.29866,-0.14934 0.64,-0.17067 0.49066,-0.0213 0.98133,0.0213 0.512,0.0427 1.00266,0.064 0.23467,0.0213 0.448,0.064 0.23467,0.0427 0.448,0.0427 0.29867,-0.0213 0.53333,-0.14933 0.256,-0.128 0.384,-0.42667 0.21334,-0.55466 -0.29866,-1.024 -0.46933,-0.384 -0.96,-0.72533 -0.49067,-0.32 -1.088,-0.512 -0.36267,-0.10666 -0.55466,-0.61866 -0.17067,-0.49067 0,-0.832 0.55466,-1.04533 1.08799,-2.02667 0.256,-0.44799 0.21334,-0.89599 -0.0427,-0.448 -0.32,-0.78934 -0.42667,-0.49066 -0.93867,-0.89599 -0.512,-0.384 -1.216,-0.49067 -0.46933,-0.064 -0.93866,-0.0427 -0.448,0.0427 -0.87467,0.27734 -0.68266,0.34133 -1.23733,0.85333 -0.55466,0.512 -1.024,1.088 -0.40533,0.448 -0.192,0.95999 0.10667,0.27734 0.14934,0.55467 0.064,0.34133 -0.0427,0.66133 -0.21333,0.74667 -0.512,1.36533 -0.29867,0.61867 -0.384,1.19467 -0.128,0.68266 -0.128,1.024 0,0.36266 0.0213,0.91733 0.0213,0.55466 0.17066,1.17333 0.14933,0.64 0.42667,1.25867 0.53333,1.30133 1.42933,2.23999 0.91733,0.93867 2.112,1.62133 1.38666,0.72533 2.83732,0.74667 1.472,0.0427 2.944,-0.23467 1.32266,-0.256 2.45333,-1.00266 0.46933,-0.32 0.91733,-0.64 0.448,-0.32 0.78933,-0.768 0.448,-0.66133 0.704,-1.408 0.27733,-0.72533 0.448,-1.49333 0.192,-0.85333 0.17067,-1.70666 0,-0.832 -0.34134,-1.64267 -0.0853,-0.17066 -0.14933,-0.34133 -0.0427,-0.17067 -0.10666,-0.32 -0.128,-0.512 0.42666,-0.46933 0.17067,0 0.23467,0 0.064,0.0213 0.23466,0.0427 -0.0427,-0.0853 -0.10666,-0.17066 -0.0427,-0.0853 -0.256,-0.27734 -0.192,-0.192 -0.66133,-0.57599 z"
         style="font-feature-settings:vrt2"
         id="path471" />
      <path
         d="m 668.30007,395.26777 v 0 q 0.64,0.064 0.81066,-0.29867 0.17067,-0.36267 0.0427,-0.91733 -0.36267,-1.64267 -1.89866,-2.28266 -0.23467,-0.0853 -0.576,-0.10667 -0.32,0 -0.55467,0.128 -0.576,0.29866 -0.72533,0.896 -0.14933,0.59733 0.256,1.152 0.448,0.63999 1.06666,1.02399 0.61867,0.40534 1.57867,0.40534 z m -1.28,11.60531 v 0 q 1.344,0 2.53866,-0.40533 1.19467,-0.384 2.09067,-1.152 0.85333,-0.704 1.45066,-1.62133 0.59733,-0.91733 0.96,-1.96266 0.17067,-0.512 0.32,-1.04534 0.14933,-0.53333 0.192,-1.06666 0.064,-0.91733 0.064,-1.856 0,-0.91733 0,-1.87733 0,-0.576 0.448,-0.704 0.42666,-0.14933 0.49066,-0.448 0.0853,-0.29866 0.064,-0.66133 -0.0213,-0.59733 -0.49066,-1.04533 -0.46933,-0.448 -1.04533,-0.46933 -0.512,-0.0427 -1.00267,0 -0.49066,0.0213 -0.78933,0.32 -0.27733,0.32 -0.34133,0.704 -0.064,0.40533 0.128,0.70399 0.27733,0.448 0.34133,0.91734 0.0853,0.46933 0.064,0.98133 -0.0427,1.06666 -0.21333,2.11199 -0.14934,1.04534 -0.68267,2.02667 -0.59733,1.06666 -1.408,1.89866 -0.78933,0.832 -1.98399,1.28 -0.74667,0.29867 -1.49334,0.36267 -0.72533,0.064 -1.49333,-0.17067 -1.13066,-0.32 -1.62133,-0.96 -0.46933,-0.64 -0.576,-1.57866 -0.10666,-1.10933 -0.0213,-2.21867 0.10667,-1.08799 0.91733,-2.02666 0.0427,-0.10667 0.0853,-0.23467 0.064,-0.128 0.0213,-0.21333 -0.128,-0.53333 -0.42667,-1.06666 -0.0853,-0.128 -0.256,-0.23467 -0.17066,-0.0853 -0.32,-0.0853 -0.34133,-0.0213 -0.704,0 -0.34133,0.0427 -0.68266,0.14933 -0.81067,0.256 -1.57867,0.66133 -0.34133,0.192 -0.68266,0.42667 -0.34133,0.256 -0.68267,0.49066 -0.23466,0.17067 -0.23466,0.384 -0.0213,0.23467 0.10666,0.49067 0.14934,0.384 0.49067,0.53333 0.32,0.14933 0.704,0.192 0.576,0.064 0.66133,0.17067 0.0853,0.10666 0.064,0.66133 v 0.064 q 0,0.81067 0.0213,1.62133 0.0213,0.832 0.064,1.64266 0.0213,0.29867 0.10667,0.59734 0.0853,0.32 0.23467,0.53333 0.40533,0.64 0.93866,1.17333 0.53333,0.55467 1.19467,0.96 0.896,0.53333 1.89866,0.78933 1.00267,0.256 2.06933,0.256 z m -0.384,-10.66665 v 0 q -0.29867,-0.0213 -0.53333,0 -0.55467,0.064 -0.74667,0.49067 -0.192,0.42666 0.0853,0.87466 1.21599,1.70667 3.24266,1.856 0.68266,0.064 0.68266,-0.61867 0,-0.70399 -0.384,-1.30133 -0.384,-0.576 -1.00266,-0.93866 -0.61867,-0.36267 -1.344,-0.36267 z"
         style="font-feature-settings:vrt2"
         id="path473" />
      <path
         d="m 667.7454,424.36638 v 0 q -0.32,0 -0.78933,-0.0427 -0.46933,-0.0427 -0.96,-0.14933 -0.704,-0.14933 -1.152,-0.74666 -0.42666,-0.59734 -0.46933,-1.344 -0.0427,-0.72533 0.40533,-1.28 0.72534,-0.85333 1.55733,-1.51466 0.85334,-0.66134 1.984,-0.96 1.13067,-0.29867 2.19733,-0.704 1.088,-0.40533 2.176,-0.78933 0.21333,-0.064 0.29866,-0.23467 0.10667,-0.14933 0.0213,-0.32 -0.17067,-0.384 -0.36267,-0.768 -0.17066,-0.384 -0.55466,-0.61866 -1.04534,-0.704 -2.21867,-1.10934 -1.152,-0.40533 -2.34666,-0.68266 -1.088,-0.256 -2.112,-0.66133 -1.024,-0.40534 -1.98399,-1.00267 -0.34134,-0.21333 -0.72534,-0.384 -0.36266,-0.14933 -0.81066,-0.128 -0.512,0.0427 -0.832,0.36267 -0.32,0.32 -0.256,0.64 0.064,0.36266 0.0427,0.61866 0,0.256 0.0213,0.46934 0,0.192 0,0.36266 0,0.192 0.0427,0.384 0.27733,0.93867 0.85333,1.55733 0.59733,0.61867 1.536,0.87467 0.384,0.10666 0.768,0.192 0.38399,0.10666 0.74666,0.23466 0.448,0.14934 0.46933,0.29867 0.0427,0.14933 -0.29866,0.46933 -0.42667,0.42667 -0.87467,0.81067 -0.42666,0.40533 -0.81066,0.85333 -0.61867,0.74667 -1.06667,1.55733 -0.42666,0.81067 -0.384,1.856 0.064,1.36533 0.96,2.32533 0.59733,0.66133 1.344,1.06666 0.74666,0.40534 1.62133,0.512 1.23733,0.14933 2.45333,0.0853 1.23733,-0.0427 2.43199,-0.36266 0.96,-0.256 1.87734,-0.55467 0.91733,-0.29866 1.77066,-0.81066 0.49066,-0.29867 0.40533,-0.78933 -0.0213,-0.27734 -0.128,-0.46934 -0.0853,-0.17066 -0.36266,-0.256 -0.17067,-0.0427 -0.32,-0.0853 -0.128,-0.0213 -0.448,-0.10667 -0.53334,-0.128 -1.06667,-0.0427 -0.53333,0.10666 -1.088,0.61866 -0.32,0.29867 -0.61866,0.448 -0.27733,0.14933 -0.91733,0.21333 -0.61867,0.064 -1.024,0.0853 -0.384,0.0213 -1.00267,0.0213 z m 5.88799,-7.72265 v 0 q -0.0213,0.0427 0.10667,0.17066 0.14933,0.128 0.256,0.256 0.14933,0.21334 0.40533,0.21334 0.256,0.0213 0.49067,-0.064 0.29866,-0.10667 0.32,-0.29867 0.0427,-0.192 -0.17067,-0.384 -0.29866,-0.23467 -0.49066,-0.29867 -0.17067,-0.0427 -0.40534,0.10667 -0.10666,0.0853 -0.32,0.14933 -0.192,0.0853 -0.192,0.14934 z"
         style="font-feature-settings:vrt2"
         id="path475" />
      <path
         d="m 663.47874,438.95835 v 0 q 0.0213,0.36267 0.064,0.72533 0.0427,0.36267 0.0427,0.72534 0.0213,0.66133 -0.0213,1.32266 -0.0427,0.68267 0.0213,1.36533 0.0853,0.85333 0.34133,1.664 0.27734,0.81066 1.00267,1.408 0.66133,0.576 1.13066,0.66133 0.46933,0.10667 1.216,-0.448 0.64,-0.46933 1.216,-1.04533 0.59733,-0.55467 1.19466,-1.10933 0.27734,-0.256 0.36267,-0.46934 0.0853,-0.192 0.0853,-0.64 0,-0.42666 -0.0213,-0.59733 -0.0213,-0.17066 -0.128,-0.40533 -0.17067,-0.49067 -0.59733,-0.768 -0.42667,-0.27733 -1.06667,-0.192 -0.27733,0.0213 -0.576,0.34133 -0.27733,0.32 -0.23466,0.768 0.0213,0.256 -0.21334,0.448 -0.21333,0.21333 -0.53333,0.42667 -0.0853,0.064 -0.21333,0.10666 -0.10667,0.064 -0.17067,0.0213 -0.23466,-0.14934 -0.23466,-0.46934 0.0213,-0.78933 0.0427,-1.57866 0.0213,-0.78933 0.064,-1.57866 0.0213,-0.21334 0.10667,-0.448 0.10666,-0.23467 0.256,-0.384 0.14933,-0.128 0.384,-0.17067 0.23466,-0.0427 0.448,-0.064 2.02666,-0.0853 4.03199,-0.17066 2.02666,-0.0853 4.03199,-0.21334 0.256,0 0.512,-0.128 0.27734,-0.128 0.46934,-0.29866 0.14933,-0.10667 0.21333,-0.34134 0.0853,-0.23466 0.0427,-0.384 -0.14934,-0.36266 -0.42667,-0.66133 -0.27733,-0.27733 -0.72533,-0.32 -0.66134,-0.0213 -1.32267,-0.0427 -0.66133,0 -1.32266,-0.0213 -1.17333,-0.0213 -2.368,-0.064 -1.17333,-0.0213 -2.34666,-0.064 -0.192,0 -0.384,-0.064 -0.192,-0.0427 -0.36267,-0.10666 -0.576,-0.21334 -0.256,-0.704 0.256,-0.448 0.55467,-0.87467 0.29867,-0.42666 0.59733,-0.832 0.27733,-0.36266 0.34133,-0.72533 0.064,-0.34133 -0.17066,-0.768 -0.384,-0.66133 -1.04533,-0.81066 -0.66134,-0.128 -1.19467,0.384 -0.32,0.27733 -0.53333,0.704 -0.21333,0.42666 -0.384,0.81066 -0.21333,0.512 -0.448,1.024 -0.21333,0.53333 -0.384,1.04533 -0.192,0.64 -0.40533,0.81067 -0.192,0.192 -0.832,0.21333 -0.78933,0.064 -1.57866,0.0853 -0.78934,0.0427 -1.6,0.0853 -0.29867,0 -0.512,0.128 -0.49067,0.25599 -0.64,0.85333 -0.17067,0.61866 0.14933,1.152 0.0853,0.17066 0.23467,0.27733 0.14933,0.128 0.32,0.23466 0.40533,0.27734 0.85333,0.27734 0.448,0 0.896,-0.0213 0.49067,-0.0213 1.00266,-0.0427 0.512,-0.0213 1.024,-0.0427 z m 11.41332,3.09333 v 0 q -0.0213,-0.32 -0.32,-0.81067 -0.21333,-0.34133 -0.36267,-0.49066 -0.128,-0.128 -0.34133,-0.21333 -0.192,-0.0853 -0.59733,-0.256 -0.40534,-0.14934 -1.10933,-0.512 -0.27734,-0.128 -0.42667,0.064 -0.128,0.192 -0.064,0.49066 0.0853,0.32 0.14933,0.72533 0.0853,0.40534 0.0853,0.576 0,0.55467 0.256,0.96 0.27733,0.42667 0.74666,0.68267 0.27733,0.17066 0.576,0.21333 0.29867,0.064 0.576,-0.128 0.53333,-0.32 0.68267,-0.53333 0.17066,-0.21333 0.14933,-0.768 z"
         style="font-feature-settings:vrt2"
         id="path477" />
      <path
         d="m 672.14006,451.67299 v 0 q -1.28,-0.0213 -2.55999,0.0213 -1.28,0.0427 -2.56,0.0427 -1.216,0 -2.432,0 -1.21599,0 -2.43199,0 -0.256,0 -0.53333,0 -0.27734,0.0213 -0.55467,0.0853 -0.448,0.128 -0.91733,0.27733 -0.448,0.17067 -0.896,0.34134 -0.14933,0.0427 -0.27733,0.14933 -0.21334,0.192 -0.17067,0.42667 0.0213,0.23466 0.29867,0.32 0.23466,0.0853 0.49066,0.128 0.27734,0.0427 0.53333,0.128 0.36267,0.0853 0.72534,0.17066 0.384,0.10667 0.72533,0.27734 0.384,0.21333 0.78933,0.29866 0.40533,0.0853 0.832,0.10667 0.87467,0 1.74933,0.0213 0.896,0.0427 1.77066,0.0427 0.32,0 0.36267,0.32 0.128,0.704 0.27733,1.40799 0.17067,0.72534 0.21334,1.45067 0.10666,1.10933 0.128,2.21866 0.0213,1.13067 0.0427,2.24 0,0.17067 -0.14933,0.34133 -0.66133,0.61867 -1.49333,0.93867 -0.81067,0.32 -1.57867,0.72533 -0.21333,0.10667 -0.53333,-0.0213 -0.29866,-0.10667 -0.55466,-0.34134 -0.23467,-0.21333 -0.23467,-0.42666 -0.0213,-0.384 0.0853,-0.74667 0.10667,-0.34133 0.36267,-0.64 0.34133,-0.40533 0.768,-0.704 0.448,-0.29866 0.96,-0.448 0.23466,-0.064 0.448,-0.14933 0.21333,-0.064 0.40533,-0.192 0.29866,-0.21333 0.32,-0.576 0.0213,-0.42666 -0.49067,-0.512 -0.10666,0 -0.23466,-0.0427 -0.10667,-0.0427 -0.21334,-0.064 -0.72533,-0.10667 -1.42933,-0.064 -0.704,0.064 -1.36533,0.49066 -0.53333,0.36267 -0.93866,0.768 -0.384,0.40533 -0.74667,0.91733 -0.064,0.0853 -0.0853,0.29867 0,0.23467 0,0.34133 0.0213,0.42667 0.0427,0.85333 0.0213,0.448 0.0213,0.87467 0,0.64 0.23466,1.17333 0.256,0.55467 0.72534,1.00267 0.19199,0.17066 0.38399,0.34133 0.192,0.192 0.384,0.36267 0.32,0.27733 0.64,0.38399 0.34134,0.128 0.72534,0.14934 1.13066,0.064 2.00533,-0.17067 0.89599,-0.21333 1.83466,-0.53333 1.06666,-0.34133 1.81333,-1.06667 0.512,-0.46933 0.512,-1.19466 0,-0.36267 0,-0.74667 0,-0.36266 0.0213,-0.72533 0.0213,-0.128 0.0853,-0.32 0.064,-0.17066 0.14933,-0.17066 0.128,-0.0427 0.27733,0.0213 0.17067,0.064 0.29867,0.17067 0.49066,0.40533 0.91733,0.95999 0.42667,0.55467 0.768,1.10934 0.29866,0.51199 0.59733,1.00266 0.29867,0.512 0.78933,0.832 0.14934,0.10667 0.34134,0.17067 0.19199,0.064 0.34133,0.0213 0.512,-0.0853 0.85333,-0.53333 0.36267,-0.448 0.448,-1.00267 0.0853,-0.53333 -0.256,-0.93866 -0.34133,-0.42667 -0.68267,-0.85334 -0.34133,-0.40533 -0.70399,-0.81066 -0.68267,-0.81067 -1.57867,-1.25867 -0.896,-0.448 -1.856,-0.76799 -0.42666,-0.14934 -0.78933,-0.36267 -0.36266,-0.21333 -0.46933,-0.74667 -0.0213,-0.17066 -0.0853,-0.34133 -0.0427,-0.17067 -0.064,-0.36267 -0.14934,-0.89599 -0.27734,-1.81333 -0.128,-0.91733 -0.256,-1.83466 -0.064,-0.32 0.27734,-0.512 0.53333,-0.29866 1.10933,-0.384 0.576,-0.064 1.152,-0.128 0.32,-0.0213 0.64,-0.064 0.31999,-0.0213 0.61866,-0.10666 0.61867,-0.17067 1.216,-0.384 0.61866,-0.192 1.23733,-0.384 0.10667,-0.0427 0.21333,-0.0853 0.128,-0.0427 0.23467,-0.10666 0.0853,-0.0853 0.192,-0.21334 0.10667,-0.10666 0.0853,-0.192 -0.0427,-0.128 -0.17066,-0.256 -0.10667,-0.10666 -0.21334,-0.21333 -0.0427,-0.0427 -0.128,-0.0427 -0.0853,0 -0.14933,-0.0213 -0.85333,-0.0427 -1.70666,-0.0853 -0.85334,-0.0427 -1.70667,-0.064 z m -9.91998,6.61332 v 0 q 0.36266,0.0213 0.832,-0.10666 0.46933,-0.128 0.896,-0.256 0.128,-0.0427 0.23466,-0.14934 0.10667,-0.0853 0.192,-0.14933 0.0853,-0.064 0.10667,-0.14933 0.0427,-0.064 -0.0427,-0.17067 -0.27733,-0.42667 -0.55466,-0.87467 -0.27734,-0.42666 -0.61867,-0.83199 -0.0853,-0.128 -0.32,-0.192 -0.21333,-0.0427 -0.384,-0.0427 -0.66133,0.0213 -1.06666,0.40533 -0.384,0.384 -0.68267,0.91733 -0.32,0.61867 0.192,1.088 0.23467,0.21334 0.53333,0.36267 0.29867,0.14933 0.68267,0.14933 z"
         style="font-feature-settings:vrt2"
         id="path479" />
      <path
         d="m 668.30007,474.62763 v 0 q 0.64,0.064 0.81066,-0.29867 0.17067,-0.36267 0.0427,-0.91733 -0.36267,-1.64267 -1.89866,-2.28267 -0.23467,-0.0853 -0.576,-0.10666 -0.32,0 -0.55467,0.128 -0.576,0.29866 -0.72533,0.896 -0.14933,0.59733 0.256,1.15199 0.448,0.64 1.06666,1.024 0.61867,0.40534 1.57867,0.40534 z m -1.28,11.60531 v 0 q 1.344,0 2.53866,-0.40533 1.19467,-0.384 2.09067,-1.152 0.85333,-0.704 1.45066,-1.62133 0.59733,-0.91733 0.96,-1.96266 0.17067,-0.512 0.32,-1.04534 0.14933,-0.53333 0.192,-1.06666 0.064,-0.91733 0.064,-1.856 0,-0.91733 0,-1.87733 0,-0.576 0.448,-0.704 0.42666,-0.14933 0.49066,-0.448 0.0853,-0.29866 0.064,-0.66133 -0.0213,-0.59733 -0.49066,-1.04533 -0.46933,-0.448 -1.04533,-0.46933 -0.512,-0.0427 -1.00267,0 -0.49066,0.0213 -0.78933,0.32 -0.27733,0.32 -0.34133,0.704 -0.064,0.40533 0.128,0.70399 0.27733,0.448 0.34133,0.91734 0.0853,0.46933 0.064,0.98133 -0.0427,1.06666 -0.21333,2.11199 -0.14934,1.04534 -0.68267,2.02667 -0.59733,1.06666 -1.408,1.89866 -0.78933,0.832 -1.98399,1.28 -0.74667,0.29867 -1.49334,0.36267 -0.72533,0.064 -1.49333,-0.17067 -1.13066,-0.32 -1.62133,-0.96 -0.46933,-0.64 -0.576,-1.57866 -0.10666,-1.10933 -0.0213,-2.21867 0.10667,-1.08799 0.91733,-2.02666 0.0427,-0.10667 0.0853,-0.23467 0.064,-0.128 0.0213,-0.21333 -0.128,-0.53333 -0.42667,-1.06666 -0.0853,-0.128 -0.256,-0.23467 -0.17066,-0.0853 -0.32,-0.0853 -0.34133,-0.0213 -0.704,0 -0.34133,0.0427 -0.68266,0.14933 -0.81067,0.256 -1.57867,0.66133 -0.34133,0.192 -0.68266,0.42667 -0.34133,0.256 -0.68267,0.49066 -0.23466,0.17067 -0.23466,0.384 -0.0213,0.23467 0.10666,0.49067 0.14934,0.384 0.49067,0.53333 0.32,0.14933 0.704,0.192 0.576,0.064 0.66133,0.17067 0.0853,0.10666 0.064,0.66133 v 0.064 q 0,0.81066 0.0213,1.62133 0.0213,0.832 0.064,1.64266 0.0213,0.29867 0.10667,0.59734 0.0853,0.32 0.23467,0.53333 0.40533,0.64 0.93866,1.17333 0.53333,0.55467 1.19467,0.96 0.896,0.53333 1.89866,0.78933 1.00267,0.256 2.06933,0.256 z m -0.384,-10.66665 v 0 q -0.29867,-0.0213 -0.53333,0 -0.55467,0.064 -0.74667,0.49067 -0.192,0.42666 0.0853,0.87466 1.21599,1.70667 3.24266,1.856 0.68266,0.064 0.68266,-0.61867 0,-0.704 -0.384,-1.30133 -0.384,-0.576 -1.00266,-0.93866 -0.61867,-0.36267 -1.344,-0.36267 z"
         style="font-feature-settings:vrt2"
         id="path481" />
      <path
         d="m 668.30007,499.80093 v 0 q 0.64,0.064 0.81066,-0.29867 0.17067,-0.36266 0.0427,-0.91733 -0.36267,-1.64266 -1.89866,-2.28266 -0.23467,-0.0853 -0.576,-0.10667 -0.32,0 -0.55467,0.128 -0.576,0.29867 -0.72533,0.896 -0.14933,0.59733 0.256,1.152 0.448,0.64 1.06666,1.02399 0.61867,0.40534 1.57867,0.40534 z m -1.28,11.60531 v 0 q 1.344,0 2.53866,-0.40533 1.19467,-0.384 2.09067,-1.152 0.85333,-0.704 1.45066,-1.62133 0.59733,-0.91733 0.96,-1.96266 0.17067,-0.512 0.32,-1.04533 0.14933,-0.53334 0.192,-1.06667 0.064,-0.91733 0.064,-1.856 0,-0.91733 0,-1.87733 0,-0.576 0.448,-0.704 0.42666,-0.14933 0.49066,-0.44799 0.0853,-0.29867 0.064,-0.66134 -0.0213,-0.59733 -0.49066,-1.04533 -0.46933,-0.448 -1.04533,-0.46933 -0.512,-0.0427 -1.00267,0 -0.49066,0.0213 -0.78933,0.32 -0.27733,0.32 -0.34133,0.704 -0.064,0.40533 0.128,0.704 0.27733,0.448 0.34133,0.91733 0.0853,0.46933 0.064,0.98133 -0.0427,1.06666 -0.21333,2.112 -0.14934,1.04533 -0.68267,2.02666 -0.59733,1.06666 -1.408,1.89866 -0.78933,0.832 -1.98399,1.28 -0.74667,0.29867 -1.49334,0.36267 -0.72533,0.064 -1.49333,-0.17067 -1.13066,-0.32 -1.62133,-0.96 -0.46933,-0.64 -0.576,-1.57866 -0.10666,-1.10933 -0.0213,-2.21866 0.10667,-1.088 0.91733,-2.02667 0.0427,-0.10666 0.0853,-0.23466 0.064,-0.128 0.0213,-0.21334 -0.128,-0.53333 -0.42667,-1.06666 -0.0853,-0.128 -0.256,-0.23467 -0.17066,-0.0853 -0.32,-0.0853 -0.34133,-0.0213 -0.704,0 -0.34133,0.0427 -0.68266,0.14933 -0.81067,0.256 -1.57867,0.66133 -0.34133,0.192 -0.68266,0.42667 -0.34133,0.256 -0.68267,0.49067 -0.23466,0.17066 -0.23466,0.38399 -0.0213,0.23467 0.10666,0.49067 0.14934,0.384 0.49067,0.53333 0.32,0.14934 0.704,0.192 0.576,0.064 0.66133,0.17067 0.0853,0.10667 0.064,0.66133 v 0.064 q 0,0.81067 0.0213,1.62133 0.0213,0.832 0.064,1.64267 0.0213,0.29866 0.10667,0.59733 0.0853,0.32 0.23467,0.53333 0.40533,0.64 0.93866,1.17333 0.53333,0.55467 1.19467,0.96 0.896,0.53333 1.89866,0.78933 1.00267,0.256 2.06933,0.256 z m -0.384,-10.66665 v 0 q -0.29867,-0.0213 -0.53333,0 -0.55467,0.064 -0.74667,0.49067 -0.192,0.42666 0.0853,0.87466 1.21599,1.70667 3.24266,1.856 0.68266,0.064 0.68266,-0.61866 0,-0.704 -0.384,-1.30134 -0.384,-0.576 -1.00266,-0.93866 -0.61867,-0.36267 -1.344,-0.36267 z"
         style="font-feature-settings:vrt2"
         id="path483" />
      <path
         d="m 674.35873,527.49155 v 0 q 0.128,0 0.256,0.0213 0.128,0.0213 0.27733,-0.0213 0.128,-0.0213 0.256,-0.0853 0.128,-0.064 0.21333,-0.17067 0.576,-0.87467 0.42667,-1.728 -0.128,-0.85333 -0.768,-1.55733 -0.40533,-0.49067 -0.832,-0.96 -0.42667,-0.448 -0.85333,-0.91733 -1.19467,-1.38666 -2.368,-2.77333 -1.17333,-1.38666 -2.38933,-2.77333 -0.32,-0.384 -0.72533,-0.72533 -0.40533,-0.32 -0.832,-0.61867 -0.29867,-0.23466 -0.704,-0.25599 -0.384,0 -0.72533,0.23466 -0.32,0.21333 -0.66133,0.448 -0.32,0.256 -0.61867,0.55467 -1.088,1.08799 -2.15466,2.19733 -1.06667,1.13066 -2.112,2.23999 -0.576,0.576 -0.81066,1.25867 -0.256,0.704 -0.128,1.51466 0.064,0.49067 0.34133,0.768 0.27733,0.29867 0.72533,0.448 0.32,0.10667 0.576,-0.0213 0.256,-0.128 0.512,-0.32 0.384,-0.34134 0.64,-0.768 0.256,-0.42667 0.448,-0.896 0.36266,-1.00267 0.87466,-1.89866 0.53334,-0.896 1.28,-1.664 0.27733,-0.27733 0.59733,-0.448 0.34134,-0.17067 0.74667,-0.21333 0.87466,-0.0853 1.536,0.29866 0.66133,0.40534 1.19466,0.96 0.55467,0.576 1.04533,1.216 0.49067,0.66133 0.91734,1.36533 0.27733,0.448 0.44799,0.96 0.192,0.53333 0.36267,1.04533 0.14933,0.512 0.23467,1.00267 0.10666,0.51199 0.23466,1.02399 0.128,0.32 0.34134,0.55467 0.42666,0.49067 1.00266,0.576 0.59733,0.10667 1.19467,0.128 z m -6.67733,-3.84 v 0 q 0.192,-0.0853 0.40534,-0.14933 0.21333,-0.064 0.42666,-0.14933 0.23467,-0.10667 0.23467,-0.32 0.0213,-0.192 -0.21334,-0.32 -0.29866,-0.192 -0.63999,-0.23467 -0.98134,-0.14933 -1.96267,-0.10666 -0.98133,0.0427 -1.94133,0.17066 -0.46933,0.0427 -0.66133,0.40534 -0.17067,0.36266 0.0213,0.76799 0.17067,0.34134 0.34134,0.66134 0.17066,0.34133 0.34133,0.68266 0.42666,0.704 0.85333,0.0213 0.46933,-0.78934 1.17333,-1.13067 0.704,-0.34133 1.62133,-0.29867 z m -0.576,1.6 v 0 q -0.66133,-0.0213 -1.23733,0.34133 -0.576,0.384 -0.74666,0.85334 -0.21334,0.55466 -0.27734,1.152 -0.064,0.61866 0.192,1.19466 0.32,0.74667 0.896,1.23733 0.59733,0.49067 1.49333,0.55467 0.34134,0.0427 0.768,-0.128 0.42667,-0.14934 0.768,-0.42667 0.34133,-0.256 0.46933,-0.576 0.23467,-0.55466 -0.29866,-0.91733 -0.512,-0.32 -1.088,-0.0853 -0.55467,0.256 -0.768,-0.27734 -0.14933,-0.448 -0.14933,-0.91733 0,-0.448 0.10666,-0.576 0.10667,-0.128 0.53334,-0.192 0.23466,-0.0427 0.32,-0.23466 0.0853,-0.192 -0.064,-0.36267 -0.256,-0.23467 -0.49067,-0.448 -0.23467,-0.192 -0.42667,-0.192 z"
         style="font-feature-settings:vrt2"
         id="path485" />
      <path
         d="m 664.03341,534.19023 v 0 q -0.49067,-0.0213 -0.85333,0.192 -0.36267,0.23466 -0.72534,0.49066 l -0.14933,0.10667 q -0.59733,0.40533 -0.64,0.98133 -0.0213,0.576 0.32,1.06666 0.17067,0.23467 0.32,0.49067 0.14933,0.27733 0.192,0.55467 0.0853,0.64 0.128,1.27999 0.0427,0.64 0,1.28 -0.17067,1.81333 0.49067,3.52 0.064,0.14933 0.128,0.27733 0.064,0.14933 0.27733,0.17067 0.448,0.0213 0.576,-0.384 0.128,-0.384 0.23466,-0.78934 0.128,-0.40533 0.128,-0.78933 -0.0213,-1.25866 -0.10666,-2.55999 -0.0853,-1.28 -0.14933,-2.752 0,-0.0853 0.10666,-0.23467 0.27733,-0.36266 0.512,-0.59733 0.256,-0.21333 0.46933,-0.42666 0.32,-0.32 0.34134,-0.72534 0.0213,-0.40533 -0.36267,-0.704 -0.27733,-0.21333 -0.59733,-0.34133 -0.29867,-0.10666 -0.64,-0.10666 z m 0.23466,11.26398 v 0 q -0.0853,0.192 -0.25599,0.68266 -0.17067,0.49067 -0.192,0.98134 -0.0213,0.81066 0.128,1.30133 0.17066,0.512 0.61866,0.832 1.04533,0.72533 2.304,0.53333 0.34133,-0.064 0.66133,-0.23467 0.32,-0.14933 0.53333,-0.46933 0.21334,-0.29867 0.46933,-0.576 0.27734,-0.27733 0.55467,-0.53333 0.23467,-0.21334 0.53333,-0.17067 0.42667,0.0427 0.74667,0.27733 0.34133,0.23467 0.66133,0.53334 0.29867,0.27733 0.59733,0.576 0.32,0.31999 0.64,0.61866 1.04533,0.91733 1.83467,-0.192 0.14933,-0.21333 0.21333,-0.49066 0.0853,-0.27734 0.128,-0.55467 0.0213,-0.448 -0.192,-0.64 -0.192,-0.192 -0.448,-0.14933 -0.384,0.0427 -0.61867,0.064 -0.21333,0.0213 -0.40533,-0.064 -0.704,-0.256 -1.344,-0.66133 -0.61866,-0.40534 -1.06666,-1.088 -0.17067,-0.27734 -0.23467,-0.34134 -0.10666,-0.10666 -0.17066,-0.21333 -0.064,-0.0853 -0.064,-0.21333 -0.0213,-1.6 -0.0213,-3.30666 0,-1.68533 0.0213,-3.28533 0,-0.21333 0.0213,-0.256 0.0427,-0.0427 0.21333,-0.14933 0.23467,-0.14934 0.40534,-0.36267 0.19199,-0.192 0.31999,-0.448 0.192,-0.34133 0.0213,-0.704 -0.14934,-0.34133 -0.46933,-0.256 -0.0853,0.0213 -0.36267,0.0427 -0.27733,0.0213 -1.17333,0.0213 -0.832,0.0213 -1.38667,0.576 -0.32,0.32 -0.66133,0.64 -0.32,0.32 -0.64,0.66133 -0.42666,0.46933 -0.704,0.98133 -0.128,0.21334 -0.0213,0.512 0.128,0.32 0.36267,0.46934 0.21333,0.14933 0.384,0.064 0.19199,-0.0853 0.36266,-0.21334 0.14933,-0.10666 0.32,-0.21333 0.17067,-0.10667 0.34133,-0.17067 0.40534,-0.17066 0.68267,-0.0213 0.27733,0.17067 0.32,0.59733 0.064,0.46933 0.10667,0.91733 0.064,0.46934 0.0427,0.91734 -0.0213,0.49066 -0.128,0.95999 -0.0853,0.49067 -0.192,0.96 -0.0427,0.23467 -0.128,0.256 -0.064,0.0427 -0.256,0 -0.55466,-0.10666 -1.088,-0.0427 -0.53333,0.064 -1.06666,0.17066 -0.40533,0.0853 -0.768,0.27734 -0.34133,0.192 -0.49067,0.59733 z m 0.96,0.832 v 0 q 0.23467,-0.384 0.384,-0.512 0.14934,-0.128 0.34134,-0.128 0.192,0.0213 0.51199,0.0213 0.32,0 0.61867,0.064 0.32,0.064 0.42667,0.384 0.14933,0.34133 0.0213,0.68267 -0.10667,0.34133 -0.36267,0.61866 -0.10666,0.10667 -0.23466,0.192 -0.10667,0.0853 -0.21334,0.14933 -0.40533,0.256 -0.72533,0.192 -0.32,-0.0427 -0.768,-0.49066 -0.192,-0.17067 -0.21333,-0.49067 -0.0213,-0.32 0.21333,-0.68266 z"
         style="font-feature-settings:vrt2"
         id="path487" />
      <path
         d="m 667.7454,565.78482 v 0 q -0.32,0 -0.78933,-0.0427 -0.46933,-0.0427 -0.96,-0.14933 -0.704,-0.14934 -1.152,-0.74667 -0.42666,-0.59733 -0.46933,-1.344 -0.0427,-0.72533 0.40533,-1.28 0.72534,-0.85333 1.55733,-1.51466 0.85334,-0.66133 1.984,-0.96 1.13067,-0.29866 2.19733,-0.704 1.088,-0.40533 2.176,-0.78933 0.21333,-0.064 0.29866,-0.23467 0.10667,-0.14933 0.0213,-0.32 -0.17067,-0.38399 -0.36267,-0.76799 -0.17066,-0.384 -0.55466,-0.61867 -1.04534,-0.704 -2.21867,-1.10933 -1.152,-0.40533 -2.34666,-0.68267 -1.088,-0.256 -2.112,-0.66133 -1.024,-0.40533 -1.98399,-1.00266 -0.34134,-0.21334 -0.72534,-0.384 -0.36266,-0.14934 -0.81066,-0.128 -0.512,0.0427 -0.832,0.36266 -0.32,0.32 -0.256,0.64 0.064,0.36267 0.0427,0.61867 0,0.256 0.0213,0.46933 0,0.192 0,0.36267 0,0.192 0.0427,0.384 0.27733,0.93866 0.85333,1.55733 0.59733,0.61866 1.536,0.87466 0.384,0.10667 0.768,0.192 0.38399,0.10667 0.74666,0.23467 0.448,0.14933 0.46933,0.29866 0.0427,0.14934 -0.29866,0.46934 -0.42667,0.42666 -0.87467,0.81066 -0.42666,0.40533 -0.81066,0.85333 -0.61867,0.74667 -1.06667,1.55733 -0.42666,0.81067 -0.384,1.856 0.064,1.36533 0.96,2.32533 0.59733,0.66133 1.344,1.06667 0.74666,0.40533 1.62133,0.512 1.23733,0.14933 2.45333,0.0853 1.23733,-0.0427 2.43199,-0.36267 0.96,-0.256 1.87734,-0.55466 0.91733,-0.29867 1.77066,-0.81067 0.49066,-0.29866 0.40533,-0.78933 -0.0213,-0.27733 -0.128,-0.46933 -0.0853,-0.17067 -0.36266,-0.256 -0.17067,-0.0427 -0.32,-0.0853 -0.128,-0.0213 -0.448,-0.10666 -0.53334,-0.128 -1.06667,-0.0427 -0.53333,0.10667 -1.088,0.61867 -0.32,0.29866 -0.61866,0.448 -0.27733,0.14933 -0.91733,0.21333 -0.61867,0.064 -1.024,0.0853 -0.384,0.0213 -1.00267,0.0213 z m 5.88799,-7.72266 v 0 q -0.0213,0.0427 0.10667,0.17067 0.14933,0.128 0.256,0.256 0.14933,0.21333 0.40533,0.21333 0.256,0.0213 0.49067,-0.064 0.29866,-0.10667 0.32,-0.29867 0.0427,-0.192 -0.17067,-0.384 -0.29866,-0.23466 -0.49066,-0.29866 -0.17067,-0.0427 -0.40534,0.10666 -0.10666,0.0853 -0.32,0.14934 -0.192,0.0853 -0.192,0.14933 z"
         style="font-feature-settings:vrt2"
         id="path489" />
      <path
         d="m 667.7454,585.79545 v 0 q -0.32,0 -0.78933,-0.0427 -0.46933,-0.0427 -0.96,-0.14933 -0.704,-0.14933 -1.152,-0.74666 -0.42666,-0.59734 -0.46933,-1.344 -0.0427,-0.72533 0.40533,-1.28 0.72534,-0.85333 1.55733,-1.51466 0.85334,-0.66134 1.984,-0.96 1.13067,-0.29867 2.19733,-0.704 1.088,-0.40533 2.176,-0.78933 0.21333,-0.064 0.29866,-0.23467 0.10667,-0.14933 0.0213,-0.32 -0.17067,-0.384 -0.36267,-0.768 -0.17066,-0.384 -0.55466,-0.61866 -1.04534,-0.704 -2.21867,-1.10934 -1.152,-0.40533 -2.34666,-0.68266 -1.088,-0.256 -2.112,-0.66133 -1.024,-0.40534 -1.98399,-1.00267 -0.34134,-0.21333 -0.72534,-0.384 -0.36266,-0.14933 -0.81066,-0.128 -0.512,0.0427 -0.832,0.36267 -0.32,0.32 -0.256,0.64 0.064,0.36266 0.0427,0.61866 0,0.256 0.0213,0.46934 0,0.192 0,0.36266 0,0.192 0.0427,0.384 0.27733,0.93867 0.85333,1.55733 0.59733,0.61867 1.536,0.87467 0.384,0.10666 0.768,0.192 0.38399,0.10666 0.74666,0.23466 0.448,0.14934 0.46933,0.29867 0.0427,0.14933 -0.29866,0.46933 -0.42667,0.42667 -0.87467,0.81067 -0.42666,0.40533 -0.81066,0.85333 -0.61867,0.74666 -1.06667,1.55733 -0.42666,0.81067 -0.384,1.856 0.064,1.36533 0.96,2.32533 0.59733,0.66133 1.344,1.06666 0.74666,0.40533 1.62133,0.512 1.23733,0.14933 2.45333,0.0853 1.23733,-0.0427 2.43199,-0.36266 0.96,-0.256 1.87734,-0.55467 0.91733,-0.29866 1.77066,-0.81066 0.49066,-0.29867 0.40533,-0.78934 -0.0213,-0.27733 -0.128,-0.46933 -0.0853,-0.17066 -0.36266,-0.256 -0.17067,-0.0427 -0.32,-0.0853 -0.128,-0.0213 -0.448,-0.10667 -0.53334,-0.128 -1.06667,-0.0427 -0.53333,0.10666 -1.088,0.61866 -0.32,0.29867 -0.61866,0.448 -0.27733,0.14933 -0.91733,0.21333 -0.61867,0.064 -1.024,0.0853 -0.384,0.0213 -1.00267,0.0213 z m 5.88799,-7.72265 v 0 q -0.0213,0.0427 0.10667,0.17066 0.14933,0.128 0.256,0.256 0.14933,0.21334 0.40533,0.21334 0.256,0.0213 0.49067,-0.064 0.29866,-0.10667 0.32,-0.29867 0.0427,-0.192 -0.17067,-0.384 -0.29866,-0.23467 -0.49066,-0.29867 -0.17067,-0.0427 -0.40534,0.10667 -0.10666,0.0853 -0.32,0.14933 -0.192,0.0853 -0.192,0.14934 z"
         style="font-feature-settings:vrt2"
         id="path491" />
      <path
         d="m 674.29473,598.8301 v 0 q -0.0213,-0.512 -0.0853,-0.896 -0.0427,-0.384 -0.14933,-0.81067 -0.14933,-0.704 -0.448,-1.36533 -0.27733,-0.64 -0.768,-1.17333 -0.256,-0.32 -0.576,-0.42667 -0.32,-0.10666 -0.768,0.0213 -0.512,0.128 -0.95999,0.17066 -0.448,0.064 -1.19467,0.0853 -0.53333,0.0213 -0.74667,-0.53333 -0.14933,-0.34134 -0.29866,-0.68267 -0.14933,-0.32 -0.32,-0.66133 -0.14933,-0.27734 -0.36267,-0.36267 -0.21333,-0.0853 -0.46933,0.0853 -0.53333,0.384 -0.93866,0.61867 -0.384,0.23467 -1.06667,0.576 -0.14933,0.0853 -0.27733,0.256 -0.128,0.17067 -0.192,0.34133 -0.064,0.17067 -0.10667,0.36267 -0.0213,0.21333 0.0213,0.384 0.21334,0.49066 0.10667,0.66133 -0.10667,0.192 -0.64,0.512 -0.36266,0.21333 -0.74666,0.40533 -0.36267,0.192 -0.74667,0.40533 -0.72533,0.42667 -1.088,1.06667 -0.36266,0.64 -0.46933,1.45066 -0.064,0.64 0,1.024 0.064,0.40533 0.29867,0.74667 0.23466,0.34133 0.66133,0.768 0.61866,0.63999 1.344,1.00266 0.74666,0.36267 1.64266,0.448 0.42667,0.0427 0.85333,0.23467 0.512,0.21333 0.96,0.17066 0.46933,-0.0427 0.91733,-0.40533 0.0853,-0.064 0.192,-0.128 0.10667,-0.064 0.192,-0.14933 0.29867,-0.256 0.49067,-0.61867 0.192,-0.36266 0.0213,-0.78933 -0.14933,-0.36267 -0.192,-0.74667 -0.0427,-0.384 -0.10666,-0.74666 -0.0853,-0.59733 -0.0853,-1.17333 0,-0.55467 0.0427,-1.19467 0.0213,-0.36266 0.0427,-0.53333 0.0213,-0.14933 0.59733,-0.064 0.36266,0.064 0.91733,0.17067 0.55467,0.128 1.00266,0.384 0.46934,0.27733 0.512,0.74666 0.0853,0.68267 0.0853,1.36533 0,0.68267 -0.17067,1.36533 -0.128,0.42667 -0.36267,0.78934 -0.23466,0.36266 -0.46933,0.72533 -0.21333,0.29866 -0.40533,0.59733 -0.17067,0.32 -0.34133,0.64 -0.0213,0.0427 0.0213,0.14933 0.0427,0.128 0.0853,0.10667 0.29867,-0.0853 0.576,-0.0427 0.27733,0.064 0.55467,0.192 0.0427,0.0213 0.17066,-0.0213 0.21334,-0.064 0.512,-0.192 0.32,-0.10667 1.024,-0.256 0.10667,-0.0213 0.34133,-0.40533 0.256,-0.36267 0.49067,-0.87467 0.384,-0.896 0.64,-1.83466 0.27733,-0.91733 0.23467,-1.94133 z m -8.36266,1.23733 v 0 q -0.0213,0.17067 -0.0427,0.40533 -0.0213,0.23467 -0.064,0.49067 -0.128,0.55466 -0.704,0.49066 -0.704,-0.0853 -1.216,-0.576 -0.49067,-0.49066 -0.59733,-1.17333 -0.0427,-0.32 0.0427,-0.59733 0.0853,-0.27733 0.32,-0.49067 0.23467,-0.23466 0.49067,-0.46933 0.27733,-0.23466 0.576,-0.36266 0.96,-0.40534 1.088,0.70399 0.0213,0.36267 0.0427,0.74667 0.0213,0.384 0.064,0.832 z m 2.56,7.85065 v 0 q 0.66133,-0.0213 1.42933,-0.17066 0.78933,-0.128 1.6,-0.27734 0.29866,-0.064 0.59733,-0.17066 0.29867,-0.10667 0.576,-0.23467 0.10666,-0.0427 0.17066,-0.17067 0.0853,-0.128 0.0853,-0.23466 0,-0.0853 -0.128,-0.17067 -0.10667,-0.0853 -0.192,-0.10666 -0.256,-0.064 -0.512,-0.10667 -0.23467,-0.0213 -0.46933,-0.0427 -0.53334,-0.064 -1.06667,-0.10666 -0.512,-0.0427 -1.04533,-0.064 -1.17333,-0.064 -1.57866,-1.17334 -0.0213,-0.0427 -0.0427,-0.128 -0.0213,-0.064 -0.0853,-0.0853 -0.064,-0.0427 -0.14934,-0.0213 -0.0853,0.0427 -0.128,0.10666 -0.0853,0.0853 -0.40533,0.23467 -0.29867,0.17067 -0.66133,0.42667 -0.34133,0.256 -0.512,0.59733 -0.29867,0.55467 0.10667,0.93866 0.44799,0.448 1.02399,0.704 0.576,0.27734 1.38667,0.256 z"
         style="font-feature-settings:vrt2"
         id="path493" />
      <path
         d="m 667.7454,625.39004 v 0 q -0.32,0 -0.78933,-0.0427 -0.46933,-0.0427 -0.96,-0.14933 -0.704,-0.14933 -1.152,-0.74667 -0.42666,-0.59733 -0.46933,-1.34399 -0.0427,-0.72534 0.40533,-1.28 0.72534,-0.85333 1.55733,-1.51467 0.85334,-0.66133 1.984,-0.95999 1.13067,-0.29867 2.19733,-0.704 1.088,-0.40534 2.176,-0.78933 0.21333,-0.064 0.29866,-0.23467 0.10667,-0.14933 0.0213,-0.32 -0.17067,-0.384 -0.36267,-0.768 -0.17066,-0.384 -0.55466,-0.61866 -1.04534,-0.704 -2.21867,-1.10934 -1.152,-0.40533 -2.34666,-0.68266 -1.088,-0.256 -2.112,-0.66133 -1.024,-0.40534 -1.98399,-1.00267 -0.34134,-0.21333 -0.72534,-0.384 -0.36266,-0.14933 -0.81066,-0.128 -0.512,0.0427 -0.832,0.36267 -0.32,0.32 -0.256,0.64 0.064,0.36266 0.0427,0.61866 0,0.256 0.0213,0.46933 0,0.192 0,0.36267 0,0.192 0.0427,0.384 0.27733,0.93867 0.85333,1.55733 0.59733,0.61867 1.536,0.87467 0.384,0.10666 0.768,0.192 0.38399,0.10666 0.74666,0.23466 0.448,0.14934 0.46933,0.29867 0.0427,0.14933 -0.29866,0.46933 -0.42667,0.42667 -0.87467,0.81067 -0.42666,0.40533 -0.81066,0.85333 -0.61867,0.74666 -1.06667,1.55733 -0.42666,0.81066 -0.384,1.856 0.064,1.36533 0.96,2.32533 0.59733,0.66133 1.344,1.06666 0.74666,0.40533 1.62133,0.512 1.23733,0.14933 2.45333,0.0853 1.23733,-0.0427 2.43199,-0.36266 0.96,-0.256 1.87734,-0.55467 0.91733,-0.29866 1.77066,-0.81066 0.49066,-0.29867 0.40533,-0.78934 -0.0213,-0.27733 -0.128,-0.46933 -0.0853,-0.17066 -0.36266,-0.256 -0.17067,-0.0427 -0.32,-0.0853 -0.128,-0.0213 -0.448,-0.10667 -0.53334,-0.128 -1.06667,-0.0427 -0.53333,0.10666 -1.088,0.61866 -0.32,0.29867 -0.61866,0.448 -0.27733,0.14933 -0.91733,0.21333 -0.61867,0.064 -1.024,0.0853 -0.384,0.0213 -1.00267,0.0213 z m 5.88799,-7.72265 v 0 q -0.0213,0.0427 0.10667,0.17066 0.14933,0.128 0.256,0.256 0.14933,0.21333 0.40533,0.21333 0.256,0.0213 0.49067,-0.064 0.29866,-0.10666 0.32,-0.29866 0.0427,-0.192 -0.17067,-0.384 -0.29866,-0.23467 -0.49066,-0.29867 -0.17067,-0.0427 -0.40534,0.10667 -0.10666,0.0853 -0.32,0.14933 -0.192,0.0853 -0.192,0.14934 z"
         style="font-feature-settings:vrt2"
         id="path495" />
      <path
         d="m 665.24941,641.88067 q 0,0.17066 -0.0427,0.29866 -0.192,0.66133 -0.42667,1.30133 -0.14933,0.46934 -0.32,0.91734 -0.17066,0.44799 -0.29866,0.89599 -0.10667,0.34134 -0.192,0.68267 -0.0853,0.36267 -0.128,0.704 -0.128,0.85333 -0.0213,1.25866 0.128,0.40534 0.36266,0.91733 0.14933,0.256 0.512,0.68267 0.384,0.42667 0.96,0.896 0.27733,0.23467 0.768,0.512 0.512,0.29866 1.088,0.512 0.576,0.23466 1.08799,0.27733 0.896,0.064 1.77067,-0.128 0.87466,-0.192 1.68533,-0.576 0.21333,-0.0853 0.42667,-0.23466 0.23466,-0.128 0.51199,-0.46934 0.512,-0.576 0.768,-1.06666 0.27734,-0.46934 0.448,-0.96 0.17067,-0.49067 0.34134,-1.13067 0.128,-0.46933 0.25599,-1.02399 0.128,-0.55467 0.29867,-1.19467 0.128,-0.448 0.21333,-0.93866 0.10667,-0.46934 0.10667,-1.30134 0.0213,-0.63999 -0.064,-1.04533 -0.0853,-0.384 -0.21333,-0.72533 -0.10667,-0.34133 -0.192,-0.87466 -0.21333,-1.088 -0.17067,-2.15467 0.064,-1.04533 0.40533,-2.09066 0.17067,-0.53333 0.27734,-1.06667 0.128,-0.512 0.17066,-0.78933 0.064,-0.46933 0.0213,-0.704 -0.0213,-0.23466 -0.064,-0.42666 -0.0213,-0.128 -0.0853,-0.256 -0.0427,-0.128 -0.064,-0.23467 -0.0853,-0.46933 -0.17066,-0.59733 -0.0853,-0.128 -0.32,-0.21333 -0.17067,-0.0427 -0.512,-0.064 -0.34133,-0.0213 -0.704,0.27733 -0.192,0.14933 -0.36267,0.49066 -0.14933,0.36267 -0.192,0.78934 -0.0427,0.42666 -0.0427,0.832 0,0.42666 -0.0213,0.83199 -0.0213,0.448 -0.0427,0.896 0,0.448 -0.0427,0.896 -0.0213,0.27733 -0.10667,0.53333 -0.064,0.256 -0.10666,0.512 -0.128,0.55467 -0.0213,0.98133 0.128,0.448 0.36267,1.10934 0.0853,0.256 0.192,0.53333 0.10667,0.27733 0.17067,0.55466 0.192,0.78934 0.29866,1.64267 0.21334,1.51466 -0.256,2.90133 -0.21333,0.64 -0.36266,1.13066 -0.14934,0.49067 -0.49067,1.06667 -0.32,0.55466 -0.832,0.91733 -0.49066,0.36266 -1.17333,0.448 -0.85333,0.0853 -1.57866,-0.064 -0.72533,-0.128 -1.49333,-0.68267 -0.49067,-0.34133 -0.704,-0.704 -0.21334,-0.34133 -0.36267,-0.98133 -0.0853,-0.384 -0.17067,-0.91733 -0.064,-0.512 0,-0.87467 0.10667,-0.59733 0.256,-1.19466 0.14934,-0.59733 0.40534,-1.152 0.256,-0.55466 0.61866,-1.04533 0.384,-0.49067 0.704,-1.024 0.0853,-0.128 0.14933,-0.27733 0.064,-0.14933 0.0853,-0.29867 0,-0.10666 -0.17067,-0.27733 -0.17066,-0.14933 -0.384,-0.27733 -0.192,-0.128 -0.32,-0.10667 -0.36266,0 -0.704,0.0213 -0.34133,0.0427 -0.68266,0.0853 -0.66133,0.064 -1.32267,0.0853 -0.64,0.0427 -1.27999,-0.128 -0.448,-0.128 -0.93867,-0.21333 -0.46933,-0.064 -0.93866,-0.10667 -0.29867,-0.0427 -0.46934,0.0853 -0.17066,0.128 -0.17066,0.256 -0.0213,0.448 -0.0213,0.704 0.0213,0.256 0.0427,0.768 0.0213,0.448 0.21333,0.704 0.21334,0.256 0.59734,0.40533 0.29866,0.128 0.57599,0.23467 0.27734,0.10667 0.55467,0.128 0.53333,0.0427 1.024,0 0.512,-0.0427 1.024,-0.0853 z m 2.23999,-5.67466 v 0 q 0,-0.17067 -0.0213,-0.40533 -0.0213,-0.23467 -0.128,-0.704 -0.064,-0.256 -0.23467,-0.576 -0.17066,-0.32 -0.34133,-0.68267 -0.17067,-0.34133 -0.40533,-0.61866 -0.23467,-0.256 -0.53333,-0.448 -0.512,-0.34134 -1.152,-0.21334 -0.61867,0.14934 -1.10933,0.59734 -0.46934,0.46933 -0.49067,1.10933 -0.0213,0.32 -0.064,0.66133 -0.0427,0.34133 0.0213,0.704 0.128,0.59733 0.384,0.91733 0.27734,0.32 0.87467,0.384 0.576,0.064 1.152,0.0853 0.576,0.0427 1.15199,0.064 0.42667,0.0213 0.61867,-0.0213 0.192,-0.0427 0.23467,-0.23467 0.0427,-0.17066 0.0427,-0.61866 z"
         style="font-feature-settings:vrt2"
         id="path497" />
      <path
         d="m 670.19873,666.45663 v 0 q -0.448,-0.23466 -0.81066,-0.42666 -0.34134,-0.17067 -0.46934,-0.23467 -0.29866,-0.14933 -0.40533,-0.23466 -0.10666,-0.064 -0.23466,-0.192 -0.448,-0.36267 -1.152,-0.064 -0.576,0.23466 -1.10933,0.576 -0.53334,0.34133 -0.93867,0.83199 -0.384,0.448 -0.46933,1.152 -0.064,0.72533 0.21333,1.152 0.34133,0.512 0.78933,0.93867 0.448,0.42666 0.93867,0.76799 0.23466,0.14934 0.53333,0.23467 0.32,0.10667 0.576,0.064 0.576,-0.10667 1.13066,-0.29867 0.576,-0.192 1.13067,-0.36266 0.256,-0.064 0.49067,-0.14933 0.25599,-0.0853 0.49066,-0.064 0.29867,0.0213 0.576,0.12799 0.27733,0.128 0.53333,0.256 0.91733,0.448 1.856,0.78934 0.93866,0.36266 1.92,0.59733 0.36266,0.0853 0.68266,0 0.34134,-0.064 0.59733,-0.36267 0.192,-0.21333 0.10667,-0.59733 -0.064,-0.36267 -0.32,-0.704 -0.34133,-0.49066 -0.81066,-0.78933 -0.46934,-0.29867 -1.024,-0.53333 -0.34133,-0.128 -0.68267,-0.32 -0.32,-0.192 -0.64,-0.40534 -0.128,-0.0853 -0.14933,-0.17066 -0.0213,-0.064 0.0427,-0.256 0.0853,-0.27733 0.21333,-0.55467 0.128,-0.256 0.256,-0.512 0.704,-1.45066 1.088,-2.98666 0.384,-1.51466 0.34133,-3.15733 -0.0427,-1.13066 -0.68267,-2.09066 -0.61866,-0.96 -1.62133,-1.55733 -0.98133,-0.59733 -2.11199,-0.66133 -0.55467,-0.0213 -1.13067,0 -0.576,0.0213 -1.13066,0.256 -0.78933,0.36266 -1.472,0.87466 -0.68267,0.53333 -1.32266,1.088 -0.49067,0.448 -0.96,0.91733 -0.46934,0.49067 -0.96,0.93867 -0.53333,0.512 -0.91733,-0.0853 -0.36267,-0.59733 -0.91734,-0.87466 -0.53333,-0.27733 -1.15199,-0.42667 -0.17067,-0.064 -0.384,-0.064 -0.192,0 -0.32,0.064 -0.40534,0.192 -0.81067,0.576 -0.384,0.40533 -0.46933,0.96 -0.064,0.46933 -0.10667,0.93867 -0.064,0.46933 -0.064,0.93866 -0.0213,1.04533 0.0853,2.06933 0.0853,1.024 0.384,2.02666 0.128,0.49067 0.34133,0.96 0.23466,0.49067 0.64,0.832 0.512,0.46933 0.98133,0.40533 0.49067,-0.064 0.81066,-0.63999 0.23467,-0.448 0.36267,-0.96 0.128,-0.512 0.23467,-1.00267 0.21333,-1.06666 0.32,-2.15466 0.10666,-1.088 0.53333,-2.112 0.14933,-0.34133 0.36267,-0.61866 0.21333,-0.27734 0.55466,-0.42667 0.55467,-0.256 1.10933,-0.512 0.55467,-0.256 1.13067,-0.46933 0.68266,-0.27733 1.408,-0.46933 0.72533,-0.17067 1.49333,-0.14934 0.61866,0 1.13066,0.256 0.512,0.27734 0.64,0.87467 0.192,1.024 0.17067,1.89866 -0.0213,0.896 -0.27734,1.81333 -0.10666,0.42667 -0.27733,0.85333 -0.17067,0.42667 -0.36267,0.832 -0.10666,0.23467 -0.27733,0.42667 -0.14933,0.192 -0.256,0.36266 z m -2.36799,1.19467 q 0.29866,-0.0213 0.53333,0.192 0.23466,0.23467 0.27733,0.49066 0.064,0.23467 -0.0853,0.36267 -0.128,0.14933 -0.29867,0.23467 -0.256,0.128 -0.512,0.256 -0.256,0.128 -0.53333,0.17066 -0.40533,0.0427 -0.53333,-0.14933 -0.10667,-0.192 0.0853,-0.53333 0.10667,-0.17067 0.21333,-0.34134 0.10667,-0.17066 0.23467,-0.29866 0.128,-0.128 0.27733,-0.256 0.14934,-0.128 0.34134,-0.128 z"
         style="font-feature-settings:vrt2"
         id="path499" />
      <path
         d="m 664.69474,679.08595 v 0 q -0.256,0 -0.64,0 -0.384,0 -0.72533,0 -0.32,0.0213 -0.40533,0.0213 -0.42667,0.0213 -0.55467,0.0213 -0.10667,0 -0.32,0.0213 -0.27733,0.0213 -0.512,0.14933 -0.23466,0.128 -0.36266,0.42667 -0.21334,0.576 0.23466,1.024 0.59734,0.55466 1.30133,0.85333 0.704,0.29867 1.55733,0.21333 0.10667,-0.0213 0.21334,-0.0427 0.128,-0.0213 0.23466,-0.0213 0.17067,-0.0427 0.34134,0.0213 0.17066,0.0853 0.21333,0.192 0.10667,0.192 0,0.36266 -0.10667,0.192 -0.32,0.29867 l -0.768,0.46933 q -0.34133,0.21333 -0.32,0.64 0,0.40533 0.256,0.66133 0.256,0.256 0.53333,0.448 0.85334,0.64 1.51467,0 0.10667,-0.0853 0.21333,-0.17067 0.128,-0.0853 0.256,-0.17066 0.74667,-0.55467 1.664,-0.49067 0.68266,0.064 1.25866,0.32 0.576,0.256 1.13067,0.64 0.512,0.34133 0.512,1.024 -0.0213,0.256 0,0.49066 0.0213,0.256 0.0213,0.49067 0,0.55467 -0.128,1.04533 -0.10667,0.512 -0.576,0.85333 -0.32,0.23467 -0.66133,0.42667 -0.32,0.21333 -0.68267,0.384 -0.91733,0.49067 -1.91999,0.53333 -0.98133,0.0427 -1.984,-0.192 -0.384,-0.064 -0.74667,-0.23466 -0.34133,-0.17067 -0.70399,-0.29867 -0.128,-0.064 -0.36267,-0.10667 -0.21333,-0.0213 -0.23467,0.10667 -0.0213,0.128 -0.0213,0.256 0.0213,0.14933 0.0853,0.256 0.32,0.66133 0.78934,1.152 0.46933,0.49066 1.23733,0.64 0.27733,0.064 0.55466,0.10666 0.29867,0.0427 0.59733,0.0853 0.896,0.128 1.792,0.0427 0.91733,-0.064 1.77067,-0.23466 0.98133,-0.23467 1.74933,-0.81067 0.78933,-0.576 1.47199,-1.30133 0.384,-0.448 0.59734,-0.93867 0.21333,-0.49066 0.14933,-1.06666 0,-0.064 0,-0.192 0.0213,-0.10667 0.0427,-0.46933 0.064,-0.576 -0.14934,-1.23733 -0.21333,-0.66134 -0.832,-1.25867 -0.68266,-0.66133 -1.45066,-1.216 -0.74667,-0.53333 -1.68533,-0.74666 -0.53333,-0.128 -1.06667,-0.21334 -0.53333,-0.064 -1.06666,-0.19199 -0.128,-0.0427 -0.256,-0.17067 -0.128,-0.10667 -0.128,-0.23467 0,-0.14933 0.128,-0.27733 0.128,-0.128 0.256,-0.14933 0.576,-0.10667 1.152,-0.192 0.59733,-0.0853 1.17333,-0.14934 0.53333,-0.064 1.024,-0.0853 0.512,-0.0213 1.024,-0.064 0.36266,-0.0427 0.61866,-0.27733 0.256,-0.21334 0.29867,-0.512 0.10666,-0.91733 -0.29867,-1.62133 -0.40533,-0.704 -1.19466,-0.96 -0.74667,-0.21333 -1.152,-0.40533 -0.40533,-0.192 -0.93867,-0.53334 -0.40533,-0.23466 -0.832,-0.46933 -0.40533,-0.21333 -0.91733,-0.21333 -0.256,0 -0.53333,0 -0.27733,0.0213 -0.448,0.17066 -0.32,0.23467 -0.576,0.53334 -0.23466,0.32 -0.448,0.68266 -0.17066,0.29867 -0.27733,0.66134 -0.10667,0.36266 -0.21333,0.74666 -0.14934,0.448 -0.55467,0.448 z m 5.22666,0.0853 v 0 q -0.34133,-0.0427 -0.66133,-0.10666 -0.29867,-0.0427 -0.61867,-0.128 -0.256,-0.10667 -0.27733,-0.27734 -0.0213,-0.17066 0.17066,-0.34133 0.512,-0.46933 1.10934,-0.512 0.61866,-0.0427 1.17333,0.384 0.10666,0.0853 0.17066,0.23467 0.0853,0.17066 0.128,0.256 0.064,0.192 -0.192,0.27733 -0.23466,0.10667 -0.38399,0.17067 -0.21334,0.0853 -0.61867,0.0427 z m -2.56,7.46666 q 0,0.0853 0.0213,0.17066 0.27733,0.192 0.55466,0.23467 0.27734,0.064 0.29867,0.21333 0.064,0.10667 0.32,-0.0427 0.0853,-0.0427 0.192,-0.14934 0.128,-0.0853 0.128,-0.192 0,-0.128 -0.128,-0.256 -0.10667,-0.128 -0.21334,-0.21333 -0.34133,-0.192 -0.68266,-0.128 -0.128,0.0213 -0.17067,0.10667 -0.0427,0.0853 -0.32,0.256 z m -0.40533,1.70666 -0.0427,-0.256 q -0.0427,-0.192 -0.14933,-0.29866 -0.55466,-0.55467 -1.32266,-0.46934 -0.21334,0.064 -0.256,0.29867 -0.0853,0.34133 0.14933,0.74667 0.256,0.40533 0.576,0.51199 0.98133,0.29867 1.04533,-0.53333 z"
         style="font-feature-settings:vrt2"
         id="path501" />
    </g>
  </g>
</svg>
